<svg width="46" height="54" fill="none" xmlns="http://www.w3.org/2000/svg"><path d="M4.182 50.836h2.223a4.228 4.228 0 001.49 2.279 4.165 4.165 0 002.56.884h7.84a1.037 1.037 0 00.76-.297 1.055 1.055 0 00.236-1.168 1.055 1.055 0 00-.585-.573 1.037 1.037 0 00-.41-.07h-3.66v-5.274a8.475 8.475 0 012.482-5.907 8.327 8.327 0 015.883-2.44c2.202 0 4.316.877 5.882 2.44a8.475 8.475 0 012.481 5.907v5.273h-3.66a1.037 1.037 0 00-.76.297 1.055 1.055 0 00-.235 1.168 1.055 1.055 0 00.585.573c.131.05.27.075.41.07h7.841a4.165 4.165 0 002.56-.884 4.229 4.229 0 001.49-2.28h2.223a4.168 4.168 0 002.956-1.237A4.243 4.243 0 0046 46.616v-6.96a7.431 7.431 0 00-1.789-4.83 7.31 7.31 0 00-4.484-2.476V17.8a4.187 4.187 0 002.26-1.503 4.25 4.25 0 00.877-2.582v-3.168a4.243 4.243 0 00-1.227-2.982 4.168 4.168 0 00-2.955-1.237h-8.364V4.219a4.243 4.243 0 00-1.226-2.982A4.169 4.169 0 0026.136 0h-6.272a4.169 4.169 0 00-2.956 1.237 4.243 4.243 0 00-1.226 2.982v2.109H7.318a4.169 4.169 0 00-2.955 1.237 4.243 4.243 0 00-1.227 2.982v3.164c0 .935.309 1.845.876 2.585a4.186 4.186 0 002.26 1.504v14.55a7.31 7.31 0 00-4.483 2.475A7.431 7.431 0 000 39.655v6.962a4.243 4.243 0 001.226 2.981 4.169 4.169 0 002.956 1.238zM8.364 17.93h29.273v2.742a5.303 5.303 0 01-1.531 3.725 5.21 5.21 0 01-3.692 1.548h-5.232v-2.11c0-.279-.11-.547-.306-.745a1.04 1.04 0 00-.74-.31h-6.272a1.04 1.04 0 00-.74.31 1.06 1.06 0 00-.306.746v2.109H13.59a5.21 5.21 0 01-3.694-1.546 5.303 5.303 0 01-1.533-3.727V17.93zm22.997-9.492v7.382H14.637V8.438H31.36zM25.091 27c0 .56-.22 1.096-.613 1.491a2.082 2.082 0 01-2.957 0A2.12 2.12 0 0120.908 27v-2.11h4.182V27zm-2.094 9.07a10.37 10.37 0 00-4.676 1.118 10.469 10.469 0 00-3.684 3.112V28.055h4.314a4.222 4.222 0 001.488 2.28 4.16 4.16 0 005.122 0 4.222 4.222 0 001.488-2.28h4.314v12.23a10.437 10.437 0 00-3.688-3.108 10.34 10.34 0 00-4.678-1.107zm20.915 3.586v6.96c0 .56-.22 1.096-.613 1.491a2.085 2.085 0 01-1.477.619h-2.095V34.489a5.228 5.228 0 013.004 1.832 5.31 5.31 0 011.181 3.335zM37.637 49.78a2.12 2.12 0 01-.613 1.49 2.084 2.084 0 01-1.478.618h-2.091v-23.91a7.282 7.282 0 004.182-2.146V49.78zm3.136-39.234v3.164c0 .559-.221 1.095-.613 1.49a2.085 2.085 0 01-1.477.619h-5.228V8.438h5.227c.554 0 1.085.223 1.478.618.392.396.612.932.613 1.49zm-23-6.328c0-.56.221-1.095.613-1.49a2.084 2.084 0 011.478-.619h6.272c.555 0 1.086.223 1.478.619.392.395.612.93.613 1.49v2.109H17.773V4.219zM5.227 13.711v-3.164c0-.56.221-1.095.613-1.49a2.084 2.084 0 011.477-.62h5.227v7.383H7.318a2.085 2.085 0 01-1.478-.618 2.121 2.121 0 01-.613-1.491zm7.318 14.267V51.89h-2.09a2.084 2.084 0 01-1.478-.62 2.121 2.121 0 01-.613-1.49V25.83a7.281 7.281 0 004.182 2.147zM2.091 39.656a5.31 5.31 0 011.18-3.334 5.228 5.228 0 013.002-1.833v14.238h-2.09a2.084 2.084 0 01-1.478-.619 2.122 2.122 0 01-.613-1.49l-.001-6.962z" fill="#28B0A6"/><path d="M28 42.997a.945.945 0 00-.328-.705 1.197 1.197 0 00-.794-.292h-6.753a1.2 1.2 0 00-.796.293A.947.947 0 0019 43c0 .265.119.52.33.707a1.2 1.2 0 00.795.293h6.747c.149 0 .296-.025.433-.075.137-.05.262-.124.367-.217a.999.999 0 00.244-.326.902.902 0 00.084-.385zM22.5 54c.276 0 .5-.448.5-1s-.224-1-.5-1-.5.448-.5 1 .224 1 .5 1z" fill="#28B0A6"/></svg>