<svg width="42" height="55" fill="none" xmlns="http://www.w3.org/2000/svg"><path d="M.153 42.083l1.833 2.776a.905.905 0 001.17.314l1.634-.826h9.404a3.704 3.704 0 00-.496 1.848v1.849a.909.909 0 00-.646.27.93.93 0 00-.268.654v1.412c0 1.225.481 2.4 1.338 3.267A4.542 4.542 0 0017.352 55a4.542 4.542 0 003.23-1.353 4.647 4.647 0 001.338-3.267v-1.417a.93.93 0 00-.268-.654.909.909 0 00-.646-.27V46.19a3.706 3.706 0 00-.496-1.848h9.412l1.635.827a.905.905 0 001.17-.315l1.827-2.773A.933.933 0 0034.3 40.8l-2.74-1.85a.907.907 0 00-.507-.155h-9.137v-13.86h.434c1.17 0 2.329.25 3.397.735a8.305 8.305 0 012.803 2.076 7.661 7.661 0 002.414 1.848 7.58 7.58 0 003.354.768 7.595 7.595 0 005.172-2.027 7.857 7.857 0 002.5-5.352 7.876 7.876 0 00-1.924-5.59l-5.417-6.163a7.51 7.51 0 01-1.864-4.84 7.514 7.514 0 011.71-4.898.932.932 0 00-.135-1.279.907.907 0 00-1.269.096 9.376 9.376 0 00-2.133 6.11 9.37 9.37 0 002.325 6.037l5.428 6.169a5.96 5.96 0 011.16 2 6.007 6.007 0 01-.264 4.542 5.939 5.939 0 01-1.384 1.85 5.861 5.861 0 01-1.978 1.173 5.816 5.816 0 01-4.49-.267 5.884 5.884 0 01-1.829-1.4 10.136 10.136 0 00-3.418-2.537 10.034 10.034 0 00-4.146-.899h-.434v-2.493l1.676-2.54c.1-.151.153-.33.153-.512v-1.848a.93.93 0 00-.267-.653.91.91 0 00-.647-.271h-3.654a.91.91 0 00-.646.27l-1.182 1.195-1.18-1.192a.91.91 0 00-.647-.271H11.88a.91.91 0 00-.647.27.93.93 0 00-.268.654v1.847c0 .182.053.36.153.512l1.674 2.54v18.202H3.654a.907.907 0 00-.507.155l-2.741 1.85a.933.933 0 00-.252 1.28zm25.43-1.437h5.206l1.75 1.18-.876 1.327-1.105-.56a.905.905 0 00-.41-.1h-4.565v-1.847zM20.1 50.375a2.802 2.802 0 01-.784 1.994 2.739 2.739 0 01-1.957.831 2.714 2.714 0 01-1.957-.83 2.777 2.777 0 01-.784-1.995v-.488H20.1v.488zm-4.566-2.336V46.19c0-.49.193-.96.535-1.306a1.817 1.817 0 012.584 0c.343.346.536.816.536 1.306v1.849h-3.655zm4.566-5.545h-5.482v-7.392H20.1v7.392zm-3.655-17.558v1.853H14.62v-1.853h1.827zm-1.827-1.848V21.24h1.827v1.848H14.62zm1.827 5.544v1.47L14.62 31.95v-3.313l1.827-.005zm7.31 12.01v1.85h-1.828v-1.85h1.828zm-5.482-22.716l1.29-1.305h2.362v.645l-1.402 2.128h-2.25v-1.468zm0 3.313H20.1v1.848h-1.827v-1.848zm0 3.696H20.1v1.854h-1.827v-1.854zm0 3.697H20.1v3.312l-1.827-1.842v-1.47zm.535 4.617H15.91l1.45-1.465 1.448 1.465zm-6.017-16.634h2.362l1.29 1.305v1.466h-2.25l-1.402-2.128v-.643zm-1.828 24.028h1.828v1.848h-1.828v-1.848zm-7.033 0h5.201v1.848H4.566a.905.905 0 00-.409.1l-1.103.562-.874-1.325 1.751-1.185z" fill="#28B0A6"/><path d="M26.241 20.99c.822-.002 1.63.23 2.355.673a5.29 5.29 0 011.795 1.867.954.954 0 00.238.288.82.82 0 00.317.16c.114.028.231.03.346.005a.814.814 0 00.32-.15.944.944 0 00.245-.28 1.135 1.135 0 00.122-.764 1.07 1.07 0 00-.14-.362c-.614-1.055-1.446-1.92-2.423-2.518A6.054 6.054 0 0026.241 19h-.343a.772.772 0 00-.341.067.865.865 0 00-.292.213 1.01 1.01 0 00-.196.327 1.118 1.118 0 000 .776c.046.123.112.234.196.327a.865.865 0 00.292.213c.109.048.225.07.341.066h.343zM36.819 3.146a.738.738 0 00-.597-.13.795.795 0 00-.505.371 5.063 5.063 0 00-.696 3.068 4.91 4.91 0 001.232 2.86l.357.39c.072.09.16.162.258.212a.739.739 0 00.9-.172.881.881 0 00.176-.295.944.944 0 00-.02-.69.867.867 0 00-.193-.283l-.357-.391a3.09 3.09 0 01-.775-1.8 3.187 3.187 0 01.438-1.932.951.951 0 000-.968.837.837 0 00-.218-.24zm3.431 10.516a.998.998 0 001.68-.294 1 1 0 00-.268-1.117l-1-1a1 1 0 00-1.411 1.411l1 1zM8 33.017v-2.034a1.025 1.025 0 00-.304-.697.992.992 0 00-1.392 0 1.025 1.025 0 00-.304.697v2.034c.009.263.118.513.304.697a.992.992 0 001.392 0A1.03 1.03 0 008 33.017zM2 35.98a.976.976 0 00.281.72A1 1 0 003 37a1.01 1.01 0 00.719-.3.986.986 0 00.28-.72v-2.96a.976.976 0 00-.28-.72A1 1 0 003 32a1.01 1.01 0 00-.719.3.987.987 0 00-.28.72v2.96zm27-1.947v2a1 1 0 002 0v-2a1.002 1.002 0 00-1.39-.954 1.002 1.002 0 00-.61.954zm-4-3.063v3.997a1.001 1.001 0 001.933.392c.048-.125.07-.258.067-.392v-4a1 1 0 00-2 0v.004zM3 31a.993.993 0 00.707-.295A1.01 1.01 0 004 29.99v-2.016a1.013 1.013 0 00-.304-.691.996.996 0 00-1.392 0c-.186.182-.295.43-.304.691v2.016a1.01 1.01 0 00.999 1.009z" fill="#28B0A6"/></svg>