<svg width="32" height="32" fill="none" xmlns="http://www.w3.org/2000/svg"><path d="M30.214 16a14.327 14.327 0 01-2.633 8.255 14.191 14.191 0 01-6.653 5.088 14.36 14.36 0 01-8.806.337c-2.783-.788-5.258-2.431-7.103-4.645-3.81-4.578-4.26-11.302-1.193-16.39C6.886 3.572 12.977.863 18.79 2.041c5.798 1.179 10.33 5.921 11.26 11.76.12.735.165 1.47.165 2.199 0 .968 1.5.968 1.5 0-.007-3.242-1.005-6.454-2.895-9.096a15.952 15.952 0 00-7.493-5.703C15.19-1.036 8.04.93 3.9 5.974a15.821 15.821 0 00-3.57 8.87 15.722 15.722 0 002.197 9.26c1.628 2.695 4.073 4.901 6.946 6.2a15.944 15.944 0 009.714 1.095c6.293-1.276 11.349-6.559 12.324-12.908.127-.825.195-1.65.202-2.484.008-.975-1.492-.975-1.5-.007z" fill="#28B0A6"/><path d="M9.303 10.353l4.186 4.186 6.636 6.635 1.521 1.522c.676.675 1.73-.371 1.047-1.047l-4.187-4.185-6.635-6.636-1.522-1.521c-.668-.683-1.722.371-1.046 1.046z" fill="#28B0A6"/><path d="M10.353 22.697l4.186-4.186 6.635-6.636 1.522-1.521c.675-.676-.371-1.73-1.047-1.047l-4.186 4.186a207552.496 207552.496 0 00-8.156 8.157c-.683.668.37 1.722 1.046 1.047z" fill="#28B0A6"/></svg>