<svg width="48" height="49" fill="none" xmlns="http://www.w3.org/2000/svg"><ellipse cx="24" cy="24.915" rx="24" ry="24.076" fill="#FBFBFB"/><path d="M30.905 20.015h-4.127v.973h4.127c.603 0 1.11.52 1.11 1.136v12.72c0 .616-.507 1.135-1.11 1.135H17.064c-.604 0-1.112-.519-1.112-1.135v-12.72c0-.616.508-1.136 1.112-1.136h3.809v-.973h-3.81c-1.142 0-2.063.94-2.063 2.109v12.72c0 1.168.92 2.109 2.064 2.109h13.872c1.143 0 2.064-.941 2.064-2.11V22.125c-.032-1.168-.952-2.11-2.095-2.11zm-7.397-5.29v13.759h.952V14.726l2.096 2.141.666-.681-3.238-3.31-3.27 3.31.667.681 2.127-2.141z" fill="#546179"/></svg>