<svg width="76" height="16" fill="none" xmlns="http://www.w3.org/2000/svg"><path d="M10.956 9.302a.64.64 0 00-.17.545l.473 2.761a.622.622 0 01-.24.607.558.558 0 01-.62.045l-2.354-1.297a.575.575 0 00-.265-.074h-.144a.415.415 0 00-.144.051L5.14 13.243c-.116.062-.248.083-.377.062-.314-.063-.524-.38-.473-.714l.473-2.762a.65.65 0 00-.17-.55L2.676 7.316a.63.63 0 01-.143-.634.607.607 0 01.472-.422l2.64-.404a.592.592 0 00.467-.342l1.164-2.52a.583.583 0 01.106-.152l.048-.04a.36.36 0 01.085-.073l.058-.022.09-.04h.224c.2.023.376.149.468.338l1.178 2.509c.085.183.25.31.441.342l2.64.404c.223.034.41.197.484.422a.634.634 0 01-.155.634l-1.986 1.987zm15 0a.64.64 0 00-.17.545l.473 2.761a.622.622 0 01-.24.607.558.558 0 01-.62.045l-2.354-1.297a.575.575 0 00-.265-.074h-.144a.415.415 0 00-.143.051l-2.354 1.303a.592.592 0 01-.377.062c-.314-.063-.524-.38-.473-.714l.473-2.762a.65.65 0 00-.17-.55l-1.917-1.964a.63.63 0 01-.143-.634.607.607 0 01.472-.422l2.64-.404a.592.592 0 00.467-.342l1.164-2.52a.581.581 0 01.106-.152l.048-.04a.359.359 0 01.085-.073l.058-.022.09-.04h.224c.2.023.376.149.468.338l1.178 2.509c.085.183.25.31.441.342l2.64.404a.61.61 0 01.483.422c.07.225.01.472-.154.634l-1.986 1.987zm15.73 0a.614.614 0 00-.18.545l.503 2.761a.604.604 0 01-.255.607.628.628 0 01-.663.045l-2.51-1.297a.645.645 0 00-.283-.074h-.153a.463.463 0 00-.153.051l-2.51 1.303a.624.624 0 01-.907-.652l.505-2.762a.625.625 0 00-.181-.55l-2.046-1.964a.602.602 0 01-.153-.634.635.635 0 01.504-.422l2.816-.404a.63.63 0 00.499-.342l1.24-2.52a.586.586 0 01.114-.152l.05-.04a.381.381 0 01.092-.073l.062-.022.096-.04h.239c.213.023.4.149.498.338l1.258 2.509a.63.63 0 00.47.342l2.816.404a.64.64 0 01.515.422.606.606 0 01-.164.634l-2.119 1.987zm15.27 0a.64.64 0 00-.17.545l.473 2.761a.622.622 0 01-.24.607.558.558 0 01-.62.045l-2.354-1.297a.575.575 0 00-.265-.074h-.144a.415.415 0 00-.144.051l-2.353 1.303a.592.592 0 01-.377.062c-.314-.063-.524-.38-.473-.714l.473-2.762a.65.65 0 00-.17-.55l-1.917-1.964a.63.63 0 01-.143-.634.607.607 0 01.472-.422l2.64-.404a.592.592 0 00.467-.342l1.164-2.52a.581.581 0 01.106-.152l.048-.04a.359.359 0 01.085-.073l.058-.022.09-.04h.224c.2.023.376.149.467.338l1.18 2.509c.084.183.25.31.44.342l2.64.404a.61.61 0 01.483.422c.07.225.01.472-.154.634l-1.986 1.987zm15 0a.64.64 0 00-.17.545l.473 2.761a.622.622 0 01-.24.607.558.558 0 01-.62.045l-2.353-1.297a.575.575 0 00-.266-.074h-.144a.415.415 0 00-.143.051l-2.354 1.303a.592.592 0 01-.377.062c-.314-.063-.524-.38-.472-.714l.472-2.762a.65.65 0 00-.17-.55l-1.917-1.964a.63.63 0 01-.143-.634.607.607 0 01.472-.422l2.64-.404a.592.592 0 00.467-.342l1.164-2.52a.581.581 0 01.106-.152l.048-.04a.359.359 0 01.085-.073l.058-.022.09-.04h.224c.2.023.376.149.468.338l1.178 2.509c.085.183.25.31.441.342l2.64.404c.223.034.41.197.484.422a.634.634 0 01-.155.634l-1.986 1.987z" fill="#F5A623"/></svg>