<svg width="45" height="45" fill="none" xmlns="http://www.w3.org/2000/svg"><path d="M1 38V23.2C1 10.939 10.626 1 22.5 1S44 10.939 44 23.2V38" stroke="#28B0A6" stroke-width="2" stroke-miterlimit="10" stroke-linecap="round" stroke-linejoin="round"/><path d="M39.222 44h-2.389c-2.634 0-4.777-1.794-4.777-4v-6c0-2.206 2.143-4 4.777-4H44v10c.001 2.206-2.143 4-4.778 4zM8.167 44h-2.39C3.145 44 1 42.206 1 40V30h7.167c2.634 0 4.777 1.794 4.777 4v6c.001 2.206-2.142 4-4.777 4v0z" stroke="#28B0A6" stroke-width="2" stroke-miterlimit="10" stroke-linecap="round" stroke-linejoin="round"/></svg>