<svg width="32" height="32" fill="none" xmlns="http://www.w3.org/2000/svg"><path d="M30.688 24.293l-3.02 2.585-4.145-4.922a4.79 4.79 0 001.108-3.08 4.79 4.79 0 00-1.125-3.073l-1.3-1.547 3.26-3.869-1.209-1.032-.922 1.096-4.796-4.105.923-1.097-1.208-1.035-2.253 2.678-2.254-2.678L12.54 5.25l.922 1.096-4.798 4.106-.923-1.096-1.208 1.032 3.262 3.872-1.3 1.544a4.795 4.795 0 00-1.124 3.073 4.796 4.796 0 001.105 3.08l-4.144 4.922-3.02-2.585-1.026 1.218 7.248 6.203 1.026-1.217-3.02-2.585 4.144-4.92a4.683 4.683 0 002.802.648 4.664 4.664 0 003.22-1.665l.295-.348.291.348c.401.479.892.872 1.445 1.158a4.664 4.664 0 002.169.523 4.654 4.654 0 002.409-.665l4.145 4.92-3.02 2.586 1.026 1.217 7.248-6.203-1.026-1.218zM9.69 11.668l4.798-4.106h.001l.472.563-4.127 4.901-1.144-1.358zm5.268 8.726l-.46.546a3.13 3.13 0 01-4.434.364 3.188 3.188 0 01-.361-4.47l7.81-9.271 4.796 4.105-7.35 8.726zm4.685 1.655A3.117 3.117 0 0117.5 20.94l-.46-.546 4.127-4.904 1.132 1.345a3.195 3.195 0 01.398 3.5 3.162 3.162 0 01-1.27 1.323 3.128 3.128 0 01-1.784.39zM16.982.286h-1.964v2.946h1.964V.286zM5.353 4.103l-1.12 1.12 2.24 2.241 1.12-1.12-2.24-2.241zm21.291 0l-2.24 2.24 1.12 1.121 2.24-2.241-1.12-1.12zM1.834 8.695l-.645 1.448 2.896 1.288.644-1.448-2.895-1.288zm19.873-7.634l-1.289 2.896 1.448.644 1.288-2.895-1.447-.645zM10.3 1.065l-1.448.644 1.286 2.896 1.448-.643L10.3 1.065zm19.87 7.647l-2.897 1.287.643 1.448 2.897-1.287-.644-1.448z" fill="#28B0A6"/><path d="M13.053 18.946h-.982v.983h.982v-.983zM16 16h-1.964v1.964H16V16zm1.964-2.946h-.982v1.964h.982v-1.964z" fill="#28B0A6"/></svg>