<svg width="56" height="56" fill="none" xmlns="http://www.w3.org/2000/svg"><path d="M50.496 13.284l-2.97-1.149v-5.1a.795.795 0 00-.486-.73.782.782 0 00-.301-.061h-1.82V1.791a.793.793 0 00-.23-.56.784.784 0 00-1.342.56v4.451h-1.82a.783.783 0 00-.726.488.795.795 0 00-.06.303V9.51L27.916 4.547a.782.782 0 00-.978.37.794.794 0 00-.09.368v6.2h-5.379V8.78a.793.793 0 00-.23-.56.784.784 0 00-1.343.56v2.7h-2.58a.784.784 0 00-.555.232.794.794 0 00.556 1.35h13.002v1.912H11.046v-1.908h3.121a.784.784 0 00.556-.232.793.793 0 00-.556-1.35h-3.909a.784.784 0 00-.727.488.795.795 0 00-.06.303v3.494c0 .21.083.411.231.56a.784.784 0 00.556.231h.95v3.66H6.786a.784.784 0 00-.556.232.793.793 0 00-.23.559v3.494c0 .21.083.411.23.56a.784.784 0 00.556.231h.95v28.913c0 .21.084.411.231.56a.784.784 0 00.556.231h41.69a.784.784 0 00.557-.232.794.794 0 00.23-.559V14.022a.794.794 0 00-.504-.738zm-8.181-5.46h3.634v3.7l-3.639-1.408.005-2.292zm7.113 6.741v1.8l-21.01-8.128v-1.8l21.01 8.128zm-36.643 2h15.797v3.66H12.784l.001-3.66zM7.574 21.8h26.219v1.912H7.573V21.8zm10.587 6.989v24.629h-1.903V28.791l1.903-.002zm1.572 0h1.901v24.629h-1.902l.001-24.629zm3.475 0h1.902v24.629h-1.904l.002-24.629zm3.475 0h1.9v24.629h-1.902V28.791l.002-.002zm3.474 0h1.902v24.629h-1.905l.003-24.629zm1.902-1.582H9.31V25.3h22.747l.003 1.907zm-19.275 1.584h1.901v24.627h-1.9V28.791zm-3.474 0h1.901v24.627H9.31V28.791zm24.319 24.627V25.3h.95a.784.784 0 00.556-.232.793.793 0 00.23-.559v-3.498a.793.793 0 00-.23-.56.784.784 0 00-.556-.231h-4.425v-3.66h.95a.784.784 0 00.557-.232.793.793 0 00.23-.559v-3.494a.793.793 0 00-.23-.56.784.784 0 00-.556-.231H28.42V9.932l21.007 8.128v35.358h-15.8z" fill="#E81A46"/><path d="M43.222 18H39.78a.78.78 0 00-.779.779v3.442a.78.78 0 00.779.779h3.442a.78.78 0 00.779-.779V18.78a.779.779 0 00-.778-.779zm-.779 3.442H40.56V19.56h1.883v1.883zM43.222 27H39.78a.78.78 0 00-.779.779v3.442a.78.78 0 00.779.779h3.442a.78.78 0 00.779-.779V27.78a.779.779 0 00-.778-.779zm-.779 3.442H40.56V28.56h1.883v1.883zM43.222 36H39.78a.78.78 0 00-.779.779v3.442a.78.78 0 00.779.779h3.442a.78.78 0 00.779-.779V36.78a.779.779 0 00-.778-.779zm-.779 3.442H40.56V37.56h1.883v1.883zM43.222 44H39.78a.78.78 0 00-.779.779v3.442a.78.78 0 00.779.779h3.442a.78.78 0 00.779-.779V44.78a.779.779 0 00-.778-.779zm-.779 3.442H40.56V45.56h1.883v1.883z" fill="#E81A46"/></svg>