<svg width="652" height="653" viewBox="0 0 652 653" fill="none" xmlns="http://www.w3.org/2000/svg">
<path d="M650.304 32.0054L418.144 637.272C416.456 641.658 413.477 645.428 409.602 648.095C405.732 650.756 401.144 652.189 396.446 652.204H394.81C389.857 651.84 385.144 649.897 381.368 646.663C377.586 643.433 374.941 639.079 373.81 634.236L307.076 344.902L17.7423 278.872C11.2996 277.283 5.84121 273.028 2.72628 267.169C-0.383052 261.309 -0.857057 254.403 1.4294 248.179C3.7158 241.95 8.54393 236.992 14.7054 234.539L619.972 1.67258C625.66 -0.603419 632.014 -0.55662 637.66 1.81321C643.311 4.17774 647.801 8.66734 650.165 14.3184C652.535 19.9643 652.582 26.3184 650.306 32.0064L650.304 32.0054Z" fill="black"/>
</svg>
