<svg width="18" height="34" viewBox="0 0 18 34" fill="none" xmlns="http://www.w3.org/2000/svg">
<path d="M0.305256 33.7146C0.485193 33.8959 0.729941 33.9985 0.985829 34C1.24221 34.0023 1.48861 33.8992 1.6664 33.7146L17.7154 17.6906C17.8974 17.5112 18 17.2666 18 17.0112C18 16.7557 17.8974 16.5111 17.7154 16.3317L1.6664 0.304682C1.48812 0.114366 1.24006 0.00439468 0.979144 0.000129315C0.718018 -0.00413678 0.466627 0.0973045 0.28192 0.281692C0.0974683 0.465849 -0.00436557 0.717076 0.000143627 0.97756C0.00441661 1.23803 0.114563 1.4857 0.305183 1.66372L15.6735 17.0112L0.305183 32.355C0.123818 32.5349 0.0219785 32.7795 0.0219785 33.0347C0.0219785 33.2897 0.123818 33.5343 0.305183 33.7142L0.305256 33.7146Z" fill="black"/>
</svg>
