<svg width="37" height="35" viewBox="0 0 37 35" fill="none" xmlns="http://www.w3.org/2000/svg">
<path fill-rule="evenodd" clip-rule="evenodd" d="M1.1655 0.000122828C0.858129 -0.00437008 0.561602 0.114558 0.342514 0.330215C0.12342 0.546136 0.000263863 0.840553 0 1.14819C0 1.45556 0.122892 1.75023 0.341722 1.96616C0.560816 2.18209 0.857081 2.30154 1.16443 2.29731L5.0238 2.2989L6.01437 5.73385L8.99629 16.8628V16.9532H9.0206L10.6446 23.0143C10.5033 23.6753 10.443 24.2628 10.4956 24.8236C10.5558 25.4679 10.8032 26.1051 11.2546 26.5607C12.1575 27.4723 13.3776 27.5172 14.6848 27.4614C17.2991 27.3496 20.9166 26.5618 25.4172 26.6172L31.3113 26.6902L31.3111 26.6899C31.6182 26.6978 31.9157 26.5823 32.1372 26.3693C32.3587 26.1561 32.4853 25.8632 32.4892 25.5559C32.4929 25.2485 32.3735 24.9525 32.1573 24.734C31.9411 24.5154 31.6464 24.3928 31.3393 24.3931L25.4452 24.3204C20.6656 24.2614 16.796 25.0717 14.5863 25.1664C13.4813 25.2137 12.9554 25.0139 12.8864 24.9444C12.852 24.9097 12.8071 24.8725 12.7825 24.6098C12.7677 24.452 12.7751 24.2218 12.8158 23.9266L31.2984 21.7039L31.2987 21.7036C31.5188 21.677 31.7268 21.5874 31.8973 21.4452C32.0675 21.303 32.1933 21.1143 32.2588 20.9023L33.4793 16.9531H33.4996V16.8873L36.9491 5.72659H36.9488C37.0564 5.37827 36.9924 4.99955 36.7762 4.70619C36.5598 4.41283 36.2173 4.23946 35.8526 4.23893L7.96633 4.21224L6.99193 0.832295C6.92269 0.593113 6.77785 0.382747 6.57885 0.232893C6.37984 0.0833097 6.13776 0.00216855 5.88881 0.00190469L1.1655 0.000122828ZM8.60034 6.51029L14.4326 6.51584V9.90871H9.5108L8.60007 6.5103L8.60034 6.51029ZM15.9641 6.51743L20.7118 6.52192V9.90877H15.9641V6.51743ZM22.2431 6.52351L26.9907 6.528V9.90876H22.2431V6.52351ZM28.522 6.52959L34.2945 6.53514L33.2519 9.909H28.522V6.52959ZM9.92101 11.4403H14.4327V15.422H10.988L9.92101 11.4403ZM15.9639 11.4403H20.7115V15.422H15.9639V11.4403ZM22.2428 11.4403H26.9904V15.422H22.2428V11.4403ZM28.5217 11.4403H32.7783L31.5475 15.422H28.5217V11.4403ZM11.3984 16.9535H14.4327V21.4184L12.6522 21.6324L11.3984 16.9535ZM15.9639 16.9535H20.7115V20.6633L15.9639 21.2344V16.9535ZM22.2428 16.9535H26.9904V19.9082L22.2428 20.4794V16.9535ZM28.5217 16.9535H31.0744L30.2836 19.512L28.5219 19.724V16.9535L28.5217 16.9535ZM13.9734 28.7705C13.2424 28.7705 12.5412 29.0607 12.0243 29.5779C11.5073 30.0949 11.2168 30.796 11.2168 31.5271C11.2168 32.2581 11.5073 32.9592 12.0243 33.4762C12.5412 33.9931 13.2424 34.2836 13.9734 34.2836C14.7047 34.2836 15.4058 33.9932 15.9227 33.4762C16.4397 32.9593 16.7302 32.2581 16.7302 31.5271C16.7302 30.796 16.4397 30.0949 15.9227 29.5779C15.4058 29.0607 14.7046 28.7705 13.9734 28.7705ZM28.9818 28.7705C28.2507 28.7705 27.5496 29.0607 27.0326 29.5779C26.5157 30.0949 26.2252 30.796 26.2252 31.5271C26.2252 32.2581 26.5157 32.9592 27.0326 33.4762C27.5496 33.9931 28.2507 34.2836 28.9818 34.2836C29.7131 34.2836 30.4142 33.9932 30.9311 33.4762C31.4481 32.9593 31.7385 32.2581 31.7385 31.5271C31.7385 30.796 31.4481 30.0949 30.9311 29.5779C30.4142 29.0607 29.713 28.7705 28.9818 28.7705Z" fill="#F7F7F7"/>
</svg>
