<svg width="12" height="12" viewBox="0 0 12 12" fill="none" xmlns="http://www.w3.org/2000/svg">
<g clip-path="url(#clip0_262_69)">
<path d="M8.52489 1.50146H3.99886C2.74903 1.50146 1.73584 2.50882 1.73584 3.75146V8.25146C1.73584 9.4941 2.74903 10.5015 3.99886 10.5015H8.52489C9.77471 10.5015 10.7879 9.4941 10.7879 8.25146V3.75146C10.7879 2.50882 9.77471 1.50146 8.52489 1.50146Z" stroke="white" stroke-linecap="round" stroke-linejoin="round"/>
<path d="M8.07146 5.71908C8.12732 6.09359 8.06298 6.47607 7.88759 6.81213C7.71221 7.14819 7.43471 7.42071 7.09457 7.59093C6.75443 7.76115 6.36897 7.8204 5.99301 7.76025C5.61705 7.7001 5.26974 7.52362 5.00047 7.2559C4.73121 6.98819 4.55371 6.64287 4.49321 6.26907C4.43271 5.89528 4.4923 5.51203 4.66351 5.17385C4.83471 4.83566 5.1088 4.55976 5.44681 4.38539C5.78481 4.21101 6.16951 4.14704 6.54619 4.20258C6.93041 4.25923 7.28613 4.43724 7.56078 4.71032C7.83544 4.98339 8.01448 5.33706 8.07146 5.71908Z" stroke="white" stroke-linecap="round" stroke-linejoin="round"/>
<ellipse cx="8.74889" cy="3.52607" rx="0.679064" ry="0.675" fill="white"/>
</g>
<defs>
<clipPath id="clip0_262_69">
<rect width="10.8625" height="10.8" fill="white" transform="translate(0.82959 0.601074)"/>
</clipPath>
</defs>
</svg>
