<svg width="40" height="40" viewBox="0 0 40 40" fill="none" xmlns="http://www.w3.org/2000/svg">
<path d="M34.3667 14.0834C32.6167 6.38341 25.9 2.91675 20 2.91675C20 2.91675 20 2.91675 19.9834 2.91675C14.1 2.91675 7.3667 6.36675 5.6167 14.0667C3.6667 22.6667 8.93337 29.9501 13.7 34.5334C15.4667 36.2334 17.7334 37.0834 20 37.0834C22.2667 37.0834 24.5334 36.2334 26.2834 34.5334C31.05 29.9501 36.3167 22.6834 34.3667 14.0834ZM20 22.4334C17.1 22.4334 14.75 20.0834 14.75 17.1834C14.75 14.2834 17.1 11.9334 20 11.9334C22.9 11.9334 25.25 14.2834 25.25 17.1834C25.25 20.0834 22.9 22.4334 20 22.4334Z" fill="#3567B0"/>
</svg>
