<svg width="15" height="12" viewBox="0 0 15 12" fill="none" xmlns="http://www.w3.org/2000/svg">
<path d="M14.2902 1.6296C13.7546 1.89785 13.219 1.98727 12.5942 2.07669C13.219 1.71902 13.6653 1.18251 13.8439 0.467166C13.3083 0.824838 12.6834 1.00367 11.9693 1.18251C11.4337 0.646002 10.6303 0.28833 9.82694 0.28833C8.30944 0.28833 6.97047 1.6296 6.97047 3.23912C6.97047 3.50738 6.97047 3.68621 7.05973 3.86505C4.64958 3.77563 2.41796 2.6132 0.989725 0.824838C0.721931 1.27193 0.632666 1.71902 0.632666 2.34494C0.632666 3.32854 1.16826 4.22272 1.97164 4.75923C1.52531 4.75923 1.07899 4.5804 0.632666 4.40156C0.632666 5.83225 1.61458 6.99468 2.95355 7.26294C2.68576 7.35235 2.41796 7.35235 2.15017 7.35235C1.97164 7.35235 1.79311 7.35235 1.61458 7.26294C1.97164 8.42537 3.04282 9.31955 4.38179 9.31955C3.39988 10.1243 2.15017 10.5714 0.721931 10.5714C0.454137 10.5714 0.275607 10.5714 0.0078125 10.5714C1.34678 11.3762 2.86429 11.9127 4.47105 11.9127C9.82694 11.9127 12.7727 7.44177 12.7727 3.5968C12.7727 3.50738 12.7727 3.32854 12.7727 3.23912C13.3975 2.79203 13.9331 2.25553 14.2902 1.6296Z" fill="white"/>
</svg>
