<svg width="9" height="8" viewBox="0 0 9 8" fill="none" xmlns="http://www.w3.org/2000/svg">
<path d="M8.83146 1.21C8.50817 1.37192 8.18488 1.42589 7.80771 1.47987C8.18488 1.26397 8.45429 0.940129 8.56205 0.508338C8.23876 0.724233 7.8616 0.832181 7.43054 0.940129C7.10726 0.616286 6.62232 0.400391 6.13739 0.400391C5.22141 0.400391 4.41319 1.21 4.41319 2.18153C4.41319 2.34345 4.41319 2.4514 4.46707 2.55934C3.01228 2.50537 1.66524 1.80371 0.803144 0.724233C0.6415 0.994102 0.587618 1.26397 0.587618 1.64179C0.587618 2.2355 0.910906 2.77524 1.39584 3.09908C1.12643 3.09908 0.857025 2.99113 0.587618 2.88319C0.587618 3.74677 1.18031 4.44843 1.98853 4.61035C1.82689 4.66432 1.66524 4.66432 1.5036 4.66432C1.39584 4.66432 1.28808 4.66432 1.18031 4.61035C1.39584 5.31201 2.04241 5.85174 2.85063 5.85174C2.25794 6.33751 1.5036 6.60738 0.6415 6.60738C0.479856 6.60738 0.372093 6.60738 0.210449 6.60738C1.01867 7.09314 1.93465 7.41699 2.90451 7.41699C6.13739 7.41699 7.91548 4.71829 7.91548 2.39742C7.91548 2.34345 7.91548 2.2355 7.91548 2.18153C8.29265 1.91166 8.61593 1.58781 8.83146 1.21Z" fill="white"/>
</svg>
