<svg width="18" height="34" viewBox="0 0 18 34" fill="none" xmlns="http://www.w3.org/2000/svg">
<path d="M17.6947 33.7146C17.5148 33.8959 17.2701 33.9985 17.0142 34C16.7578 34.0023 16.5114 33.8992 16.3336 33.7146L0.284626 17.6906C0.102551 17.5112 0 17.2666 0 17.0112C0 16.7557 0.102551 16.5111 0.284626 16.3317L16.3336 0.304682C16.5119 0.114366 16.7599 0.00439468 17.0209 0.000129315C17.282 -0.00413678 17.5334 0.0973045 17.7181 0.281692C17.9025 0.465849 18.0044 0.717076 17.9999 0.97756C17.9956 1.23803 17.8854 1.4857 17.6948 1.66372L2.32648 17.0112L17.6948 32.355C17.8762 32.5349 17.978 32.7795 17.978 33.0347C17.978 33.2897 17.8762 33.5343 17.6948 33.7142L17.6947 33.7146Z" fill="black"/>
</svg>
