<svg width="37" height="34" viewBox="0 0 37 34" fill="none" xmlns="http://www.w3.org/2000/svg">
<path d="M1.20701 0.000503982C0.540513 0.000503982 0 0.541539 0 1.20872C0 1.87591 0.540211 2.41694 1.20701 2.41694H5.85874L10.0076 22.0112C10.1717 22.7489 10.6547 23.3627 11.2648 23.358H31.3804C32.018 23.367 32.6045 22.7883 32.6045 22.1497C32.6045 21.5115 32.018 20.9325 31.3804 20.9415H12.2454L11.7299 18.5251H32.9899C33.5304 18.5212 34.0409 18.109 34.159 17.5812L36.9751 5.49974C37.132 4.79858 36.5239 4.03255 35.806 4.02716H8.67515L8.02128 0.956523C7.90706 0.419983 7.38733 -0.000574719 6.83956 5.89543e-07L1.20701 0.000503982ZM9.17781 6.44411H15.4639L16.0673 10.0684H9.94446L9.17781 6.44411ZM17.9281 6.44411H25.5217L24.9184 10.0684H18.5318L17.9281 6.44411ZM27.9859 6.44411H34.2846L33.4422 10.0684H27.3822L27.9859 6.44411ZM10.4602 12.4848H16.4696L17.0729 16.1091H11.2268L10.4602 12.4848ZM18.9339 12.4848H24.5159L23.9125 16.1091H19.5375L18.9339 12.4848ZM26.9801 12.4848H32.8764L32.0339 16.1091H26.3764L26.9801 12.4848ZM15.6902 24.969C13.4825 24.969 11.6671 26.7863 11.6671 28.9962C11.6671 31.2061 13.4825 33.0234 15.6902 33.0234C17.8979 33.0234 19.7133 31.2061 19.7133 28.9962C19.7133 26.7863 17.8979 24.969 15.6902 24.969ZM26.955 24.969C24.7473 24.969 22.9318 26.7863 22.9318 28.9962C22.9318 31.2061 24.7473 33.0234 26.955 33.0234C29.1626 33.0234 30.9781 31.2061 30.9781 28.9962C30.9781 26.7863 29.1626 24.969 26.955 24.969ZM15.6902 27.3855C16.5933 27.3855 17.2993 28.0923 17.2993 28.9962C17.2993 29.9002 16.5933 30.6069 15.6902 30.6069C14.7872 30.6069 14.0811 29.8999 14.0811 28.9962C14.0811 28.0923 14.7875 27.3855 15.6902 27.3855ZM26.955 27.3855C27.858 27.3855 28.5641 28.0923 28.5641 28.9962C28.5641 29.9002 27.858 30.6069 26.955 30.6069C26.0519 30.6069 25.3458 29.8999 25.3458 28.9962C25.3458 28.0923 26.0522 27.3855 26.955 27.3855Z" fill="#FAFAFA"/>
</svg>
