<svg width="24" height="29" viewBox="0 0 24 29" fill="none" xmlns="http://www.w3.org/2000/svg">
<path d="M20.7929 4.07522H16.331C16.0633 1.7849 14.1298 0 11.7797 0H11.5714C9.22154 0 7.28785 1.7849 7.04988 4.07522H2.5879C1.16012 4.07522 0 5.23534 0 6.66312C0 7.02002 0.267671 7.2879 0.624783 7.2879H22.7562C23.1131 7.2879 23.381 7.02023 23.381 6.66312C23.3808 5.23534 22.2207 4.07522 20.7929 4.07522ZM11.6013 2.40947H11.8096C12.8209 2.40947 13.6538 3.12344 13.8918 4.07522H9.51904C9.72716 3.12344 10.5899 2.40947 11.6013 2.40947Z" fill="#FC1212"/>
<path d="M3.45073 26.0579C3.53995 27.3073 4.58115 28.2592 5.83051 28.2592H17.5506C18.8 28.2592 19.8412 27.3072 19.9304 26.0579L21.3582 8.89417L2.02295 8.89437L3.45073 26.0579ZM14.1297 13.8023C14.1594 13.2371 14.6354 12.8207 15.2006 12.8503C15.7659 12.88 16.1823 13.356 16.1526 13.9212L15.6171 23.3509C15.5874 23.8862 15.1411 24.3029 14.6057 24.3029H14.5462C13.981 24.2732 13.5646 23.7972 13.5942 23.232L14.1297 13.8023ZM8.21018 12.8506C8.77542 12.8209 9.25141 13.2373 9.28105 13.8026L9.81638 23.2322C9.84606 23.7975 9.42962 24.2734 8.86439 24.3031H8.80484C8.26951 24.3031 7.8232 23.8866 7.79351 23.3511L7.25818 13.9214C7.22851 13.3562 7.64495 12.8802 8.21018 12.8506Z" fill="#FC1212"/>
</svg>
