<svg width="7" height="14" viewBox="0 0 7 14" fill="none" xmlns="http://www.w3.org/2000/svg">
<path d="M0.21371 7.05695H1.66612V13.0363C1.66612 13.1543 1.76178 13.25 1.87983 13.25H4.34245C4.46051 13.25 4.55616 13.1543 4.55616 13.0363V7.08512H6.22583C6.3344 7.08512 6.42574 7.00365 6.43813 6.89581L6.69172 4.69452C6.69869 4.63395 6.6795 4.5733 6.63898 4.52787C6.59841 4.48239 6.54037 4.45636 6.47946 4.45636H4.55625V3.07648C4.55625 2.66051 4.78022 2.44958 5.222 2.44958C5.28496 2.44958 6.47946 2.44958 6.47946 2.44958C6.59752 2.44958 6.69317 2.35388 6.69317 2.23587V0.215291C6.69317 0.0972379 6.59752 0.00158145 6.47946 0.00158145H4.74649C4.73427 0.000983065 4.70713 0 4.66712 0C4.36643 0 3.32126 0.0590266 2.49566 0.818551C1.5809 1.66022 1.70805 2.66799 1.73844 2.84272V4.45632H0.21371C0.0956565 4.45632 0 4.55197 0 4.67003V6.8432C0 6.96125 0.0956565 7.05695 0.21371 7.05695Z" fill="white"/>
</svg>
