<svg width="14" height="13" viewBox="0 0 14 13" fill="none" xmlns="http://www.w3.org/2000/svg">
<path d="M10.2404 0H4.46387C2.5022 0 0.90625 1.59603 0.90625 3.5577V9.3342C0.90625 11.2959 2.5022 12.8919 4.46387 12.8919H10.2404C12.2022 12.8919 13.7981 11.2959 13.7981 9.3342V3.5577C13.7982 1.59603 12.2022 0 10.2404 0ZM12.6544 9.3342C12.6544 10.6652 11.5715 11.7481 10.2404 11.7481H4.46387C3.13291 11.7481 2.05008 10.6652 2.05008 9.3342V3.5577C2.05008 2.22673 3.13291 1.14383 4.46387 1.14383H10.2404C11.5714 1.14383 12.6543 2.22673 12.6543 3.5577V9.3342H12.6544Z" fill="white"/>
<path d="M7.35121 3.12402C5.51948 3.12402 4.0293 4.61421 4.0293 6.44594C4.0293 8.27759 5.51948 9.7677 7.35121 9.7677C9.18294 9.7677 10.6731 8.27759 10.6731 6.44594C10.6731 4.61421 9.18294 3.12402 7.35121 3.12402ZM7.35121 8.62379C6.15026 8.62379 5.17313 7.64681 5.17313 6.44586C5.17313 5.24484 6.15019 4.26778 7.35121 4.26778C8.55223 4.26778 9.52929 5.24484 9.52929 6.44586C9.52929 7.64681 8.55216 8.62379 7.35121 8.62379Z" fill="white"/>
<path d="M10.8134 2.1543C10.593 2.1543 10.3766 2.24352 10.2209 2.39984C10.0645 2.5554 9.97461 2.77197 9.97461 2.99311C9.97461 3.21356 10.0646 3.43005 10.2209 3.58637C10.3765 3.74193 10.593 3.83192 10.8134 3.83192C11.0346 3.83192 11.2504 3.74193 11.4067 3.58637C11.563 3.43005 11.6522 3.21348 11.6522 2.99311C11.6522 2.77197 11.563 2.5554 11.4067 2.39984C11.2511 2.24352 11.0346 2.1543 10.8134 2.1543Z" fill="white"/>
</svg>
