<svg width="14" height="10" viewBox="0 0 14 10" fill="none" xmlns="http://www.w3.org/2000/svg">
<path d="M11.6978 0.148438H2.69543H2.69557C2.0847 0.148438 1.49895 0.391003 1.06712 0.822977C0.635133 1.25481 0.392578 1.84056 0.392578 2.45143V7.26663V7.26649C0.392578 7.87736 0.635144 8.46311 1.06712 8.89495C1.49895 9.32693 2.0847 9.56948 2.69557 9.56948H11.6979H11.6978C12.3086 9.56948 12.8944 9.32692 13.3262 8.89495C13.7582 8.46311 14.0008 7.87736 14.0008 7.26649V2.45129V2.45143C14.0008 1.84056 13.7582 1.25481 13.3262 0.822977C12.8944 0.390992 12.3086 0.148438 11.6978 0.148438ZM7.77232 5.90574L5.73117 6.95252V2.76539L9.81362 4.85896L7.77232 5.90574Z" fill="white"/>
</svg>
