<svg width="44" height="44" viewBox="0 0 44 44" fill="none" xmlns="http://www.w3.org/2000/svg">
<path d="M9.03637 9.03626C1.88046 16.1922 1.88046 27.8076 9.03637 34.9635C16.1923 42.1194 27.8077 42.1194 34.9636 34.9635C42.1195 27.8076 42.1195 16.1922 34.9636 9.03626C27.8077 1.88034 16.1923 1.88034 9.03637 9.03626ZM27.9114 17.4626L27.9114 25.2408C27.9114 25.6297 27.7558 25.9667 27.5095 26.2131C27.2632 26.4594 26.9262 26.6149 26.5373 26.6149C25.7854 26.6149 25.1631 25.9927 25.1631 25.2408V20.7813L18.435 27.5094C17.9035 28.0409 17.022 28.0409 16.4905 27.5094C15.9589 26.9779 15.9589 26.0964 16.4905 25.5649L23.2186 18.8368L18.7591 18.8368C18.0072 18.8368 17.3849 18.2145 17.3849 17.4626C17.3849 16.7107 18.0072 16.0885 18.7591 16.0885L26.5373 16.0885C27.2892 16.0885 27.9114 16.7107 27.9114 17.4626Z" fill="white"/>
</svg>
