<svg width="58" height="58" viewBox="0 0 58 58" fill="none" xmlns="http://www.w3.org/2000/svg">
<path d="M14.858 14.8283C7.05149 22.6348 7.05149 35.3061 14.858 43.1126C22.6644 50.919 35.3358 50.919 43.1422 43.1126C50.9487 35.3061 50.9487 22.6348 43.1422 14.8283C35.3358 7.02187 22.6644 7.02187 14.858 14.8283ZM35.4489 24.0207L35.4489 32.506C35.4489 32.9303 35.2792 33.298 35.0105 33.5667C34.7418 33.8354 34.3741 34.0051 33.9498 34.0051C33.1296 34.0051 32.4508 33.3262 32.4508 32.506L32.4508 27.6411L25.111 34.9809C24.5312 35.5607 23.5695 35.5607 22.9897 34.9809C22.4098 34.401 22.4098 33.4394 22.9897 32.8595L30.3294 25.5198L25.4645 25.5198C24.6443 25.5198 23.9655 24.841 23.9655 24.0207C23.9655 23.2005 24.6443 22.5216 25.4646 22.5216L33.9498 22.5216C34.7701 22.5216 35.4489 23.2005 35.4489 24.0207Z" fill="#3567B0"/>
</svg>
