<svg width="18" height="19" viewBox="0 0 18 19" fill="none" xmlns="http://www.w3.org/2000/svg">
<g clip-path="url(#clip0_179_1248)">
<path d="M12.7552 2.09912H5.25693C3.18635 2.09912 1.50781 3.76801 1.50781 5.82668V13.2818C1.50781 15.3405 3.18635 17.0094 5.25693 17.0094H12.7552C14.8258 17.0094 16.5043 15.3405 16.5043 13.2818V5.82668C16.5043 3.76801 14.8258 2.09912 12.7552 2.09912Z" stroke="white" stroke-width="2" stroke-linecap="round" stroke-linejoin="round"/>
<path d="M12.0052 9.08516C12.0978 9.70561 11.9912 10.3393 11.7006 10.896C11.4101 11.4528 10.9503 11.9043 10.3868 12.1862C9.82331 12.4682 9.18472 12.5664 8.56187 12.4668C7.93902 12.3671 7.36363 12.0747 6.91754 11.6312C6.47145 11.1877 6.17738 10.6156 6.07716 9.99634C5.97693 9.37707 6.07566 8.74215 6.35929 8.18188C6.64292 7.62161 7.09701 7.16453 7.65698 6.87564C8.21694 6.58676 8.85427 6.48078 9.47831 6.57279C10.1149 6.66663 10.7042 6.96154 11.1592 7.41395C11.6142 7.86636 11.9108 8.45228 12.0052 9.08516Z" stroke="white" stroke-width="2" stroke-linecap="round" stroke-linejoin="round"/>
<ellipse cx="13.1289" cy="5.45176" rx="1.125" ry="1.11827" fill="white"/>
</g>
<defs>
<clipPath id="clip0_179_1248">
<rect width="17.9958" height="17.8923" fill="white" transform="translate(0.0078125 0.606934)"/>
</clipPath>
</defs>
</svg>
