<svg width="99" height="98" viewBox="0 0 99 98" fill="none" xmlns="http://www.w3.org/2000/svg">
<path d="M59.3618 77.7875L65.5685 83.9942L77.9818 71.5808" stroke="white" stroke-width="4" stroke-linecap="round" stroke-linejoin="round"/>
<path d="M50.0518 44.3858C49.6435 44.345 49.1535 44.345 48.7043 44.3858C38.986 44.0592 31.2685 36.0967 31.2685 26.2967C31.2276 16.2925 39.3535 8.16666 49.3576 8.16666C59.3618 8.16666 67.4876 16.2925 67.4876 26.2967C67.4876 36.0967 59.7293 44.0592 50.0518 44.3858Z" stroke="white" stroke-width="4" stroke-linecap="round" stroke-linejoin="round"/>
<path d="M49.3575 89.0575C41.9259 89.0575 34.535 87.1792 28.9 83.4225C19.0184 76.8075 19.0184 66.0275 28.9 59.4533C40.1292 51.94 58.545 51.94 69.7742 59.4533" stroke="white" stroke-width="4" stroke-linecap="round" stroke-linejoin="round"/>
</svg>
