<svg width="98" height="90" viewBox="0 0 98 90" fill="none" xmlns="http://www.w3.org/2000/svg">
<path d="M8.16675 45.9368H31.85C38.0975 45.9368 42.3851 50.2516 42.3851 55.5334V67.5106C42.3851 72.7924 38.0975 77.107 31.85 77.107H18.7018C12.9035 77.107 8.16675 72.7924 8.16675 67.5106V45.9368" stroke="#292D32" stroke-width="4" stroke-linecap="round" stroke-linejoin="round"/>
<path d="M8.16675 45.9368C8.16675 23.4333 12.781 19.7139 26.6644 12.2003" stroke="#292D32" stroke-width="4" stroke-linecap="round" stroke-linejoin="round"/>
<path d="M55.6559 45.9368H79.3392C85.5867 45.9368 89.8742 50.2516 89.8742 55.5334V67.5106C89.8742 72.7924 85.5867 77.107 79.3392 77.107H66.191C60.3926 77.107 55.6559 72.7924 55.6559 67.5106V45.9368" stroke="#292D32" stroke-width="4" stroke-linecap="round" stroke-linejoin="round"/>
<path d="M55.6559 45.9368C55.6559 23.4333 60.2699 19.7139 74.1533 12.2003" stroke="#292D32" stroke-width="4" stroke-linecap="round" stroke-linejoin="round"/>
</svg>
