<svg width="33" height="34" viewBox="0 0 33 34" fill="none" xmlns="http://www.w3.org/2000/svg">
<g clip-path="url(#clip0_33_39)">
<path d="M28.166 0.0317383H4.83398C2.1685 0.0317383 0 2.23502 0 4.94328V28.6496C0 31.3579 2.1685 33.5612 4.83398 33.5612H28.166C30.8315 33.5612 33 31.3579 33 28.6496V4.94328C33 2.23502 30.8315 0.0317383 28.166 0.0317383ZM24.6664 16.731L24.0863 19.6779H20.3672V31.5966H17.4668V19.6779H13.9219V16.731H17.4668V10.8371C17.4668 8.67042 19.2015 6.90789 21.334 6.90789H24.8789V9.85481H20.3672V16.731H24.6664ZM31.0664 28.6496C31.0664 30.2745 29.7653 31.5966 28.166 31.5966H22.3008V21.6425H25.6715L27.025 14.7664H22.3008V11.8194H26.8125V4.94328H21.334C18.1355 4.94328 15.5332 7.58732 15.5332 10.8371V14.7664H11.9883V21.6425H15.5332V31.5966H4.83398C3.23474 31.5966 1.93359 30.2745 1.93359 28.6496V4.94328C1.93359 3.31838 3.23474 1.99635 4.83398 1.99635H28.166C29.7653 1.99635 31.0664 3.31838 31.0664 4.94328V28.6496Z" fill="white"/>
</g>
<defs>
<clipPath id="clip0_33_39">
<rect width="33" height="33.5294" fill="white" transform="translate(0 0.0317383)"/>
</clipPath>
</defs>
</svg>
