<svg width="35" height="43" viewBox="0 0 35 43" fill="none" xmlns="http://www.w3.org/2000/svg">
<path d="M18.9159 0.849265L32.2998 5.54064C33.0242 5.78656 33.6566 6.26319 34.1084 6.90365C34.5602 7.54411 34.8088 8.31626 34.8191 9.11176L34.9041 23.0986C34.9229 27.3598 33.4413 31.4794 30.7411 34.6736C29.3518 36.2675 27.6966 37.5842 25.8562 38.5594L18.6624 42.5762C18.4393 42.6991 18.1912 42.7642 17.939 42.7662C17.6872 42.7681 17.4388 42.7055 17.2155 42.584L9.95456 38.656C8.10229 37.7027 6.431 36.4061 5.02192 34.8294C2.27818 31.6695 0.743307 27.5655 0.709776 23.2996L0.624756 9.32521C0.626664 8.52994 0.866304 7.75515 1.31021 7.10905C1.75411 6.46295 2.38011 5.97781 3.10077 5.72138L16.4355 0.863288C17.2376 0.569555 18.1108 0.564619 18.9159 0.849265ZM25.3163 15.8442C25.0256 15.5546 24.6387 15.394 24.237 15.3963C23.8352 15.3986 23.45 15.5637 23.1625 15.8567L16.3698 22.8509L13.588 20.0573C13.2972 19.7678 12.9101 19.6075 12.5084 19.6101C12.1067 19.6128 11.7216 19.7781 11.4342 20.0713C11.2942 20.2141 11.1832 20.3849 11.1079 20.5735C11.0325 20.7622 10.9944 20.9648 10.9958 21.1691C10.9972 21.3735 11.0381 21.5755 11.116 21.763C11.1939 21.9505 11.3072 22.1197 11.4491 22.2604L15.3123 26.1431C15.6033 26.4322 15.9903 26.5922 16.3919 26.5896C16.7935 26.587 17.1786 26.4219 17.4661 26.1291L25.3282 18.0271C25.4672 17.8844 25.5774 17.714 25.6522 17.526C25.727 17.338 25.7649 17.1363 25.7636 16.9327C25.7624 16.7291 25.722 16.5279 25.6449 16.3409C25.5678 16.1539 25.4555 15.985 25.3148 15.8442H25.3163Z" fill="white"/>
</svg>
