<svg width="30" height="30" viewBox="0 0 30 30" fill="none" xmlns="http://www.w3.org/2000/svg">
<path d="M0.882324 4.80389C0.882324 18.232 11.768 29.1176 25.1961 29.1176C25.8019 29.1176 26.4025 29.0955 26.9973 29.0519C27.6798 29.0019 28.021 28.9769 28.3317 28.7981C28.589 28.65 28.8329 28.3874 28.9619 28.12C29.1176 27.7971 29.1176 27.4205 29.1176 26.6674V22.2481C29.1176 21.6147 29.1176 21.298 29.0133 21.0266C28.9214 20.7868 28.7717 20.5733 28.5779 20.4048C28.3584 20.2141 28.0607 20.1059 27.4655 19.8894L22.4353 18.0602C21.7427 17.8084 21.3964 17.6825 21.0679 17.7038C20.7782 17.7226 20.4994 17.8216 20.2626 17.9895C19.994 18.1797 19.8045 18.4957 19.4254 19.1277L18.1372 21.2745C13.9805 19.392 10.6108 16.0179 8.72546 11.8627L10.8723 10.5746C11.5042 10.1955 11.8201 10.0059 12.0105 9.73732C12.1783 9.50049 12.2773 9.22173 12.2961 8.93205C12.3175 8.60353 12.1915 8.25727 11.9397 7.56476L10.1105 2.53442C9.89409 1.9392 9.78587 1.64159 9.59514 1.42209C9.42665 1.22819 9.21313 1.07864 8.97334 0.98656C8.70187 0.882324 8.3852 0.882324 7.75185 0.882324H3.33254C2.57939 0.882324 2.20281 0.882324 1.87994 1.03801C1.61252 1.16697 1.34999 1.41097 1.20185 1.66825C1.023 1.9789 0.99801 2.32016 0.948034 3.00268C0.904489 3.5974 0.882324 4.19806 0.882324 4.80389Z" stroke="white" stroke-width="1.73176" stroke-linecap="round" stroke-linejoin="round"/>
</svg>
