<svg width="34" height="36" viewBox="0 0 34 36" fill="none" xmlns="http://www.w3.org/2000/svg">
<g clip-path="url(#clip0_33_49)">
<path d="M17 0.924316C7.62616 0.924316 0 8.67281 0 18.197C0 27.7212 7.62616 35.4697 17 35.4697C26.3738 35.4697 34 27.7212 34 18.197C34 8.67281 26.3738 0.924316 17 0.924316ZM17 33.8504C8.50498 33.8504 1.59375 26.8283 1.59375 18.197C1.59375 9.56573 8.50498 2.54363 17 2.54363C25.495 2.54363 32.4062 9.56573 32.4062 18.197C32.4062 26.8283 25.495 33.8504 17 33.8504ZM23.5536 19.7912C23.1358 19.3677 22.5698 19.1299 21.9797 19.1299C21.3897 19.1299 20.8237 19.3677 20.4059 19.7912L19.6204 20.5895C19.5264 20.6894 19.4023 20.7548 19.2678 20.7752C19.1332 20.7957 18.9958 20.7701 18.8771 20.7025C17.0272 19.7068 15.5142 18.1695 14.5341 16.2899C14.4676 16.1693 14.4425 16.0297 14.4626 15.893C14.4828 15.7563 14.5471 15.6303 14.6454 15.5348L15.4312 14.7365C15.848 14.312 16.082 13.737 16.082 13.1374C16.082 12.5378 15.848 11.9628 15.4312 11.5383L12.5416 8.60258C12.1238 8.17917 11.5578 7.94139 10.9677 7.94139C10.3776 7.94139 9.81166 8.17917 9.39389 8.60258C9.28572 8.71255 9.13909 8.8533 8.98384 9.00241C8.5182 9.44948 7.99053 9.95612 7.71973 10.3586C6.65059 11.9486 6.63465 14.1267 7.67284 16.6577C8.5435 18.7801 10.1331 21.0771 12.1491 23.1253C14.1651 25.1734 16.4257 26.789 18.5146 27.6734C19.7416 28.1929 20.8842 28.4527 21.915 28.4527C22.977 28.4527 23.9205 28.177 24.7143 27.6259C25.1105 27.3509 25.609 26.815 26.0491 26.3421C26.1959 26.1841 26.3347 26.0349 26.443 25.9249C26.8598 25.5005 27.0939 24.9254 27.0939 24.3258C27.0939 23.7262 26.8598 23.1512 26.443 22.7267L23.5536 19.7912ZM25.3161 24.7799C25.1918 24.9061 25.0455 25.0633 24.8907 25.2299C24.5443 25.6022 24.0702 26.112 23.8155 26.2888C22.4287 27.2514 20.5009 26.7604 19.1279 26.1788C17.2266 25.3737 15.1484 23.8827 13.2761 21.9804C11.4039 20.0781 9.9365 17.9666 9.14407 16.0349C8.57185 14.6399 8.08821 12.6812 9.0359 11.2721C9.20988 11.0133 9.71198 10.5312 10.0785 10.179C10.2422 10.0219 10.3968 9.87347 10.5209 9.74723C10.6398 9.62751 10.8004 9.56034 10.9677 9.56034C11.1351 9.56034 11.2957 9.62751 11.4145 9.74723L14.3039 12.6833C14.4222 12.8038 14.4887 12.9671 14.4887 13.1373C14.4887 13.3075 14.4222 13.4707 14.3039 13.5912L13.5182 14.3895C13.1796 14.7309 12.9586 15.1741 12.888 15.6534C12.8174 16.1327 12.901 16.6223 13.1264 17.0493C14.2553 19.2147 15.9983 20.9856 18.1294 22.1326C18.5498 22.3616 19.0316 22.4466 19.5033 22.3749C19.975 22.3031 20.4113 22.0786 20.7472 21.7346L21.533 20.9364C21.6519 20.8167 21.8124 20.7495 21.9798 20.7495C22.1472 20.7495 22.3077 20.8167 22.4266 20.9364L25.3161 23.8721C25.4339 23.9929 25.5 24.156 25.5 24.3261C25.5 24.4961 25.4339 24.6593 25.3161 24.78V24.7799Z" fill="white"/>
</g>
<defs>
<clipPath id="clip0_33_49">
<rect width="34" height="34.5454" fill="white" transform="translate(0 0.924316)"/>
</clipPath>
</defs>
</svg>
