<svg width="33" height="34" viewBox="0 0 33 34" fill="none" xmlns="http://www.w3.org/2000/svg">
<g clip-path="url(#clip0_33_44)">
<path d="M24.0721 20.0921L24.0597 20.1969C21.0361 18.6657 20.7198 18.4617 20.3293 19.0569C20.0584 19.469 19.2692 20.4036 19.0313 20.6803C18.7907 20.9527 18.5514 20.9736 18.1431 20.785C17.7306 20.5755 16.4064 20.1354 14.8389 18.7104C13.6179 17.5997 12.7984 16.2376 12.5564 15.8185C12.1536 15.1116 12.9964 15.011 13.7637 13.5357C13.9012 13.2423 13.8311 13.0118 13.7293 12.8036C13.6262 12.5941 12.8053 10.5404 12.4616 9.72172C12.1316 8.90584 11.7919 9.00922 11.5376 9.00922C10.7456 8.93937 10.1667 8.95055 9.65657 9.48981C7.43732 11.9682 7.99694 14.5248 9.89582 17.2435C13.6276 22.2059 15.6158 23.1195 19.2513 24.3881C20.2331 24.7052 21.1282 24.6605 21.8363 24.5571C22.6256 24.43 24.2659 23.5498 24.6083 22.5649C24.9589 21.58 24.9589 20.7627 24.8558 20.5741C24.7541 20.3855 24.4846 20.2807 24.0721 20.0921Z" fill="white"/>
<path d="M28.215 4.92307C17.6426 -5.46128 0.14575 2.07027 0.138875 16.7199C0.138875 19.6481 0.89375 22.5037 2.332 25.0254L0 33.6341L8.71062 31.3261C19.58 37.2916 32.9945 29.3702 33 16.7282C33 12.2912 31.295 8.11536 28.1944 4.97756L28.215 4.92307ZM30.2528 16.6821C30.2445 27.3459 18.7234 34.0057 9.61125 28.5627L9.11625 28.2638L3.96 29.6259L5.34188 24.5336L5.01325 24.0097C-0.65725 14.838 5.8575 2.85123 16.599 2.85123C20.2482 2.85123 23.6734 4.29719 26.2529 6.91668C28.831 9.51381 30.2528 12.9939 30.2528 16.6821Z" fill="white"/>
</g>
<defs>
<clipPath id="clip0_33_44">
<rect width="33" height="33.5294" fill="white" transform="translate(0 0.104492)"/>
</clipPath>
</defs>
</svg>
