<svg width="17" height="17" viewBox="0 0 17 17" fill="none" xmlns="http://www.w3.org/2000/svg">
<path d="M16.6713 15.0825L10.0888 8.5L16.6713 1.91752C17.1096 1.47922 17.1096 0.767054 16.6713 0.328729C16.233 -0.109576 15.5208 -0.109576 15.0825 0.328729L8.5 6.91121L1.91752 0.328729C1.47922 -0.109576 0.767054 -0.109576 0.328729 0.328729C-0.109576 0.767034 -0.109576 1.4792 0.328729 1.91752L6.91121 8.5L0.328729 15.0825C-0.109576 15.5208 -0.109576 16.2329 0.328729 16.6713C0.767034 17.1096 1.4792 17.1096 1.91752 16.6713L8.5 10.0888L15.0825 16.6713C15.5208 17.1096 16.2329 17.1096 16.6713 16.6713C17.1096 16.233 17.1096 15.5208 16.6713 15.0825Z" fill="white"/>
</svg>
