<svg width="17" height="22" viewBox="0 0 17 22" fill="none" xmlns="http://www.w3.org/2000/svg">
<path d="M8.5 11C9.08438 11 9.58481 10.7844 10.0013 10.3532C10.4171 9.92273 10.625 9.405 10.625 8.8C10.625 8.195 10.4171 7.6769 10.0013 7.2457C9.58481 6.81523 9.08438 6.6 8.5 6.6C7.91563 6.6 7.41554 6.81523 6.99975 7.2457C6.58325 7.6769 6.375 8.195 6.375 8.8C6.375 9.405 6.58325 9.92273 6.99975 10.3532C7.41554 10.7844 7.91563 11 8.5 11ZM8.5 19.085C10.6604 17.0317 12.263 15.1661 13.3078 13.4882C14.3526 11.8111 14.875 10.3217 14.875 9.02C14.875 7.02167 14.2595 5.38523 13.0284 4.1107C11.798 2.8369 10.2885 2.2 8.5 2.2C6.71146 2.2 5.20165 2.8369 3.97056 4.1107C2.74019 5.38523 2.125 7.02167 2.125 9.02C2.125 10.3217 2.6474 11.8111 3.69219 13.4882C4.73698 15.1661 6.33958 17.0317 8.5 19.085ZM8.5 22C5.64896 19.4883 3.51971 17.1552 2.11225 15.0007C0.704083 12.8469 0 10.8533 0 9.02C0 6.27 0.854604 4.07917 2.56381 2.4475C4.27231 0.815833 6.25104 0 8.5 0C10.749 0 12.7277 0.815833 14.4362 2.4475C16.1454 4.07917 17 6.27 17 9.02C17 10.8533 16.2963 12.8469 14.8888 15.0007C13.4806 17.1552 11.351 19.4883 8.5 22Z" fill="white"/>
</svg>
