<svg width="19" height="19" viewBox="0 0 19 19" fill="none" xmlns="http://www.w3.org/2000/svg">
<path d="M13.7006 19C6.14624 19 0 12.8538 0 5.2994C0.00285653 4.00361 0.476166 2.75294 1.33193 1.77992C2.18769 0.80691 3.36768 0.17776 4.65249 0.00944749C4.98002 -0.0268677 5.3106 0.04209 5.59629 0.206321C5.88199 0.370551 6.10794 0.621516 6.24138 0.922821L8.15376 5.38503C8.25296 5.61665 8.29273 5.86937 8.26947 6.12026C8.24621 6.37115 8.16065 6.61226 8.02056 6.82169L6.44118 9.23832C7.15636 10.6897 8.33477 11.8614 9.79022 12.5683L12.1783 10.9794C12.3875 10.8384 12.6292 10.753 12.8806 10.7314C13.132 10.7098 13.3847 10.7526 13.615 10.8558L18.0772 12.7586C18.3785 12.8921 18.6294 13.118 18.7937 13.4037C18.9579 13.6894 19.0269 14.02 18.9906 14.3475C18.8222 15.6323 18.1931 16.8123 17.2201 17.6681C16.2471 18.5238 14.9964 18.9971 13.7006 19ZM4.84278 1.52222C3.9246 1.64025 3.08093 2.08891 2.46972 2.78418C1.85851 3.47945 1.52168 4.37367 1.52229 5.2994C1.52481 8.52852 2.80869 11.6247 5.09202 13.908C7.37535 16.1913 10.4715 17.4752 13.7006 17.4777C14.6263 17.4783 15.5205 17.1415 16.2158 16.5303C16.9111 15.9191 17.3597 15.0754 17.4778 14.1572L13.0156 12.2544L10.637 13.8432C10.4181 13.9879 10.1656 14.0736 9.90388 14.0919C9.64216 14.1103 9.38014 14.0607 9.14325 13.9479C7.37068 13.0905 5.93686 11.6633 5.07112 9.89481C4.95698 9.65872 4.90576 9.39714 4.92243 9.13544C4.9391 8.87373 5.02309 8.62077 5.16627 8.40106L6.75516 5.98443L4.84278 1.52222Z" fill="white"/>
</svg>
