<svg width="24" height="24" fill="none" xmlns="http://www.w3.org/2000/svg"><g clip-path="url(#clip0_9_3739)"><path d="M22.582 18.706l-.124-.268c-.371-.878-4.95-2.224-5.33-2.246l-.304.023c-.625.13-1.312.72-2.756 2-1.627-.752-3.855-2.759-4.905-3.944-1.137-1.28-2.556-3.436-3.066-5.045 1.647-1.46 2.333-2.094 2.377-2.798.023-.38-.762-5.085-1.59-5.562L6.636.709C6.11.37 5.313-.143 4.43.037a1.932 1.932 0 00-.619.25C3.217.662 1.764 1.67 1.1 2.988c-.408.821-.594 8.314 5.022 14.647 4.735 5.343 10.41 6.323 12.61 6.365h.29c.23-.005.408-.021.517-.043l.029-.005.091-.028c1.389-.497 2.564-1.82 3.006-2.366.816-1.01.233-2.209-.083-2.852z" fill="#40189D"/></g><defs><clipPath id="clip0_9_3739"><path fill="#fff" transform="translate(.001)" d="M0 0h24v24H0z"/></clipPath></defs></svg>