<svg width="22" height="22" fill="none" xmlns="http://www.w3.org/2000/svg"><path d="M5 6.5H2C1.173 6.5.5 5.827.5 5V2C.5 1.173 1.173.5 2 .5h3c.827 0 1.5.673 1.5 1.5v3c0 .827-.673 1.5-1.5 1.5zM2 2v3h3.001L5 2H2zm19.5 1.5a.75.75 0 00-.75-.75h-12a.75.75 0 100 1.5h12a.75.75 0 00.75-.75zM5 14H2c-.827 0-1.5-.673-1.5-1.5v-3C.5 8.673 1.173 8 2 8h3c.827 0 1.5.673 1.5 1.5v3c0 .827-.673 1.5-1.5 1.5zM2 9.5v3h3.001L5 9.5H2zM21.5 11a.75.75 0 00-.75-.75h-12a.75.75 0 100 1.5h12a.75.75 0 00.75-.75zM5 21.5H2c-.827 0-1.5-.673-1.5-1.5v-3c0-.827.673-1.5 1.5-1.5h3c.827 0 1.5.673 1.5 1.5v3c0 .827-.673 1.5-1.5 1.5zM2 17v3h3.001L5 17H2zm19.5 1.5a.75.75 0 00-.75-.75h-12a.75.75 0 100 1.5h12a.75.75 0 00.75-.75z" fill="#40189D"/></svg>