<svg width="24" height="24" fill="none" xmlns="http://www.w3.org/2000/svg"><path d="M12.001 1c-6.078 0-11 4.923-11 11 0 2.42.77 4.648 2.09 6.462L1.578 22.45l4.373-1.265A10.883 10.883 0 0012.001 23c6.077 0 11-4.922 11-11 0-6.077-4.923-11-11-11zm5.857 15.565l-1.182 1.155c-1.237 1.238-4.51-.11-7.398-3.025-2.887-2.888-4.18-6.16-3.025-7.37l1.183-1.183c.44-.44 1.182-.44 1.65 0l1.732 1.733c.606.605.358 1.65-.44 1.898-.55.192-.935.797-.742 1.347.302 1.293 1.98 2.888 3.218 3.19.55.137 1.182-.193 1.347-.742.247-.798 1.292-1.045 1.898-.44l1.732 1.732c.44.468.44 1.21.027 1.705z" fill="#40189D"/></svg>