<?xml version="1.0" encoding="UTF-8"?>
<!DOCTYPE svg PUBLIC "-//W3C//DTD SVG 1.1//EN" "http://www.w3.org/Graphics/SVG/1.1/DTD/svg11.dtd">
<svg xmlns="http://www.w3.org/2000/svg" version="1.1" width="1500px" height="1000px" style="shape-rendering:geometricPrecision; text-rendering:geometricPrecision; image-rendering:optimizeQuality; fill-rule:evenodd; clip-rule:evenodd" xmlns:xlink="http://www.w3.org/1999/xlink">
<g><path style="opacity:0.887" fill="#fefffe" d="M 921.5,543.5 C 919.833,542.167 918.167,542.167 916.5,543.5C 914.512,562.471 913.846,581.804 914.5,601.5C 909.5,601.5 904.5,601.5 899.5,601.5C 899.5,582.167 899.5,562.833 899.5,543.5C 910.189,542.539 908.189,542.539 893.5,543.5C 892.127,543.343 890.793,543.51 889.5,544C 890.493,563.09 890.826,582.257 890.5,601.5C 883.167,601.5 875.833,601.5 868.5,601.5C 868.521,581.89 868.521,562.557 868.5,543.5C 867.5,562.822 867.167,582.155 867.5,601.5C 864.833,601.5 862.167,601.5 859.5,601.5C 859.521,581.89 859.521,562.557 859.5,543.5C 858.5,562.822 858.167,582.155 858.5,601.5C 856.5,601.5 854.5,601.5 852.5,601.5C 852.833,582.155 852.5,562.822 851.5,543.5C 851.479,562.557 851.479,581.89 851.5,601.5C 841.167,601.5 830.833,601.5 820.5,601.5C 820.5,590.5 820.5,579.5 820.5,568.5C 826.958,568.845 833.458,568.845 840,568.5C 841.711,568.439 843.044,569.106 844,570.5C 844.5,561.506 844.666,552.506 844.5,543.5C 850.167,543.336 850.5,543.003 845.5,542.5C 845.833,513.826 845.5,485.159 844.5,456.5C 842.842,454.677 841.009,453.01 839,451.5C 826.196,452.826 813.363,452.826 800.5,451.5C 799.016,448.383 798.016,445.05 797.5,441.5C 794.761,439.583 793.261,436.916 793,433.5C 792.667,433.833 792.333,434.167 792,434.5C 788.008,429.84 784.008,425.173 780,420.5C 777.766,421.705 776.099,421.039 775,418.5C 773.989,419.337 772.822,419.67 771.5,419.5C 771.5,418.5 771.5,417.5 771.5,416.5C 764.8,416.17 758.134,416.503 751.5,417.5C 747.335,420.657 743.002,422.657 738.5,423.5C 737.956,425.58 737.122,427.58 736,429.5C 734.16,428.167 733.66,428.334 734.5,430C 729.707,432.438 727.04,436.272 726.5,441.5C 725.5,441.5 724.5,441.5 723.5,441.5C 723.216,444.632 722.383,447.632 721,450.5C 719.933,451.191 718.766,451.691 717.5,452C 704.591,452.822 691.758,452.655 679,451.5C 678.829,482.072 678.329,512.572 677.5,543C 654,542.317 630,542.483 605.5,543.5C 603.833,542.167 602.167,542.167 600.5,543.5C 599.167,543.5 597.833,543.5 596.5,543.5C 596.814,507.816 596.481,472.149 595.5,436.5C 595.692,434.423 596.192,432.423 597,430.5C 610.087,429.511 623.254,429.177 636.5,429.5C 636.5,421.5 636.5,413.5 636.5,405.5C 719.833,405.5 803.167,405.5 886.5,405.5C 886.169,413.196 886.503,420.862 887.5,428.5C 900.121,429.314 912.788,429.814 925.5,430C 926,430.5 926.5,431 927,431.5C 927.667,468.5 927.667,505.5 927,542.5C 925.301,543.406 923.467,543.739 921.5,543.5 Z M 874.5,543.5 C 877.85,543.335 881.183,543.502 884.5,544C 883.874,544.75 883.374,545.584 883,546.5C 880.667,545.167 878.333,545.167 876,546.5C 875.487,545.473 874.987,544.473 874.5,543.5 Z"/></g>
<g><path style="opacity:0.132" fill="#fefffe" d="M 608.5,414.5 C 616.507,414.334 624.507,414.5 632.5,415C 633.38,416.356 633.714,417.856 633.5,419.5C 624.494,419.666 615.494,419.5 606.5,419C 606.167,418.667 605.833,418.333 605.5,418C 606.365,416.641 607.365,415.474 608.5,414.5 Z"/></g>
<g><path style="opacity:0.004" fill="#fefffe" d="M 633.5,426.5 C 633.897,425.475 634.563,425.308 635.5,426C 634.906,426.464 634.239,426.631 633.5,426.5 Z"/></g>
<g><path style="opacity:0.953" fill="#fefffe" d="M 1074.5,437.5 C 1101.17,437.333 1127.84,437.5 1154.5,438C 1155,438.5 1155.5,439 1156,439.5C 1156.48,483.282 1156.65,527.282 1156.5,571.5C 1186.17,571.667 1215.84,571.5 1245.5,571C 1244.84,549.238 1244.5,527.405 1244.5,505.5C 1244.53,482.723 1245.2,460.056 1246.5,437.5C 1256.03,436.897 1265.36,437.564 1274.5,439.5C 1275.5,559.831 1275.83,680.165 1275.5,800.5C 1271.11,800.457 1270.77,800.957 1274.5,802C 1271.12,802.176 1267.78,802.676 1264.5,803.5C 1265.3,806.41 1264.3,808.743 1261.5,810.5C 1262.38,812.748 1262.04,814.915 1260.5,817C 1259.26,817.456 1258.42,816.956 1258,815.5C 1253.86,816.809 1249.7,816.809 1245.5,815.5C 1245.17,793.667 1244.83,771.833 1244.5,750C 1244.51,727.784 1245.17,705.784 1246.5,684C 1216.5,683.5 1186.5,683.333 1156.5,683.5C 1156.5,727.167 1156.5,770.833 1156.5,814.5C 1128.5,814.5 1100.5,814.5 1072.5,814.5C 1072.67,771.832 1072.5,729.165 1072,686.5C 1071.67,686.833 1071.33,687.167 1071,687.5C 1070.51,686.207 1070.34,684.873 1070.5,683.5C 1042.26,683.172 1014.09,683.505 986,684.5C 985.363,686.303 984.197,687.636 982.5,688.5C 983.04,689.748 983.707,690.915 984.5,692C 983.169,732.137 983.169,772.304 984.5,812.5C 984.291,813.086 983.957,813.586 983.5,814C 969.171,814.5 954.837,814.667 940.5,814.5C 940.352,750.828 940.852,687.162 942,623.5C 942.333,623.833 942.667,624.167 943,624.5C 943.232,620.445 943.732,616.445 944.5,612.5C 943.675,611.614 942.675,611.281 941.5,611.5C 941.5,554.5 941.5,497.5 941.5,440.5C 955.412,440.177 969.246,440.51 983,441.5C 983.27,444.224 983.77,446.891 984.5,449.5C 983.506,490.124 983.173,530.791 983.5,571.5C 1013.17,571.5 1042.83,571.5 1072.5,571.5C 1072.33,527.499 1072.5,483.499 1073,439.5C 1073.72,438.956 1074.22,438.289 1074.5,437.5 Z"/></g>
<g><path style="opacity:0.962" fill="#fefffe" d="M 279.5,793.5 C 279.814,801.087 279.481,808.587 278.5,816C 271.167,816.667 263.833,816.667 256.5,816C 255.114,812.725 253.114,809.891 250.5,807.5C 251.872,805.38 251.205,804.38 248.5,804.5C 248.5,682.833 248.5,561.167 248.5,439.5C 257.5,439.5 266.5,439.5 275.5,439.5C 275.343,440.873 275.51,442.207 276,443.5C 276.333,443.167 276.667,442.833 277,442.5C 277.5,485.832 277.667,529.165 277.5,572.5C 307.167,572.5 336.833,572.5 366.5,572.5C 366.5,528.5 366.5,484.5 366.5,440.5C 394.167,440.5 421.833,440.5 449.5,440.5C 449.808,460.247 450.808,479.914 452.5,499.5C 451.167,501.167 451.167,502.833 452.5,504.5C 450.021,507.967 450.021,511.467 452.5,515C 450.981,522.666 450.314,530.666 450.5,539C 450.314,547.334 450.981,555.334 452.5,563C 451.344,565.633 450.344,568.3 449.5,571C 479.498,571.5 509.498,571.667 539.5,571.5C 538.887,527.424 539.554,483.424 541.5,439.5C 554.5,439.5 567.5,439.5 580.5,439.5C 580.901,478.686 580.234,517.853 578.5,557C 579.284,574.831 579.451,592.664 579,610.5C 576.416,613.406 575.916,616.739 577.5,620.5C 578.756,623.003 580.256,624.67 582,625.5C 582.936,628.792 582.436,631.792 580.5,634.5C 579.505,639.792 579.172,645.125 579.5,650.5C 578.325,650.281 577.325,650.614 576.5,651.5C 577.833,697.5 577.833,743.5 576.5,789.5C 580.434,792.71 580.434,795.877 576.5,799C 577.815,804.47 577.815,809.97 576.5,815.5C 574.235,816.647 571.902,816.814 569.5,816C 568.743,813.056 568.077,810.056 567.5,807C 568.943,804.922 568.276,804.089 565.5,804.5C 565.5,803.5 565.5,802.5 565.5,801.5C 564.5,801.5 563.5,801.5 562.5,801.5C 562.66,799.801 562.494,798.134 562,796.5C 561.333,797.833 560.667,797.833 560,796.5C 559.506,798.134 559.34,799.801 559.5,801.5C 555.5,801.5 551.5,801.5 547.5,801.5C 547.5,805.5 547.5,809.5 547.5,813.5C 548.5,813.5 549.5,813.5 550.5,813.5C 550.5,814.5 550.5,815.5 550.5,816.5C 548.508,816.672 546.842,816.005 545.5,814.5C 543.714,816.021 541.881,816.354 540,815.5C 539.17,771.596 539.337,727.762 540.5,684C 510.167,683.333 479.833,683.333 449.5,684C 450.663,727.096 450.83,770.262 450,813.5C 422.219,814.796 394.386,814.796 366.5,813.5C 366.333,770.499 366.5,727.499 367,684.5C 367.273,682.899 367.773,681.399 368.5,680C 337.628,680.8 306.795,680.633 276,679.5C 277.294,717.031 277.961,754.698 278,792.5C 278.383,793.056 278.883,793.389 279.5,793.5 Z"/></g>
<g><path style="opacity:0.704" fill="#fefffe" d="M 600.5,543.5 C 602.167,543.5 603.833,543.5 605.5,543.5C 606.487,562.757 606.82,582.091 606.5,601.5C 604.167,601.5 601.833,601.5 599.5,601.5C 599.18,582.091 599.513,562.757 600.5,543.5 Z"/></g>
<g><path style="opacity:0.616" fill="#fefffe" d="M 893.5,543.5 C 895.167,543.5 896.833,543.5 898.5,543.5C 898.5,562.833 898.5,582.167 898.5,601.5C 896.5,601.5 894.5,601.5 892.5,601.5C 892.18,582.091 892.513,562.757 893.5,543.5 Z"/></g>
<g><path style="opacity:0.706" fill="#fefffe" d="M 916.5,543.5 C 918.167,543.5 919.833,543.5 921.5,543.5C 922.487,562.757 922.82,582.091 922.5,601.5C 920.167,601.5 917.833,601.5 915.5,601.5C 915.18,582.091 915.513,562.757 916.5,543.5 Z"/></g>
<g><path style="opacity:0.73" fill="#fefffe" d="M 607.5,545.5 C 615.167,545.5 622.833,545.5 630.5,545.5C 630.5,564.167 630.5,582.833 630.5,601.5C 622.833,601.5 615.167,601.5 607.5,601.5C 607.5,582.833 607.5,564.167 607.5,545.5 Z"/></g>
<g><path style="opacity:0.816" fill="#fefffe" d="M 631.5,545.5 C 633.5,545.5 635.5,545.5 637.5,545.5C 637.5,564.167 637.5,582.833 637.5,601.5C 635.5,601.5 633.5,601.5 631.5,601.5C 631.5,582.833 631.5,564.167 631.5,545.5 Z"/></g>
<g><path style="opacity:0.707" fill="#fefffe" d="M 639.5,545.5 C 641.5,545.5 643.5,545.5 645.5,545.5C 645.5,564.167 645.5,582.833 645.5,601.5C 643.5,601.5 641.5,601.5 639.5,601.5C 638.191,582.791 638.191,564.125 639.5,545.5 Z"/></g>
<g><path style="opacity:0.713" fill="#fefffe" d="M 646.5,545.5 C 656.684,545.786 667.018,545.786 677.5,545.5C 677.5,564.167 677.5,582.833 677.5,601.5C 667.167,601.5 656.833,601.5 646.5,601.5C 646.5,582.833 646.5,564.167 646.5,545.5 Z"/></g>
<g><path style="opacity:0.667" fill="#fefffe" d="M 678.5,568.5 C 680.792,568.244 682.959,568.577 685,569.5C 685.5,580.161 685.667,590.828 685.5,601.5C 683.167,601.5 680.833,601.5 678.5,601.5C 678.5,590.5 678.5,579.5 678.5,568.5 Z"/></g>
<g><path style="opacity:0.666" fill="#fefffe" d="M 687.5,568.5 C 689.5,568.5 691.5,568.5 693.5,568.5C 693.5,579.5 693.5,590.5 693.5,601.5C 691.167,601.5 688.833,601.5 686.5,601.5C 686.19,590.419 686.523,579.419 687.5,568.5 Z"/></g>
<g><path style="opacity:0.682" fill="#fefffe" d="M 695.5,568.5 C 697.467,568.261 699.301,568.594 701,569.5C 701.5,580.161 701.667,590.828 701.5,601.5C 699.167,601.5 696.833,601.5 694.5,601.5C 694.19,590.419 694.523,579.419 695.5,568.5 Z"/></g>
<g><path style="opacity:0.657" fill="#fefffe" d="M 702.5,568.5 C 706.249,569.083 709.916,569.083 713.5,568.5C 714.994,568.709 716.161,569.376 717,570.5C 719.481,568.686 722.315,568.02 725.5,568.5C 725.5,579.5 725.5,590.5 725.5,601.5C 717.833,601.5 710.167,601.5 702.5,601.5C 702.5,590.5 702.5,579.5 702.5,568.5 Z"/></g>
<g><path style="opacity:0.673" fill="#fefffe" d="M 726.5,568.5 C 729.079,568.083 731.246,568.75 733,570.5C 733.5,580.828 733.666,591.161 733.5,601.5C 731.167,601.5 728.833,601.5 726.5,601.5C 726.5,590.5 726.5,579.5 726.5,568.5 Z"/></g>
<g><path style="opacity:0.775" fill="#fefffe" d="M 734.5,568.5 C 736.5,568.5 738.5,568.5 740.5,568.5C 740.5,579.5 740.5,590.5 740.5,601.5C 738.5,601.5 736.5,601.5 734.5,601.5C 734.5,590.5 734.5,579.5 734.5,568.5 Z"/></g>
<g><path style="opacity:0.65" fill="#fefffe" d="M 742.5,568.5 C 745.044,568.104 747.211,568.771 749,570.5C 751.376,568.256 754.043,567.923 757,569.5C 757.5,580.161 757.667,590.828 757.5,601.5C 752.167,601.5 746.833,601.5 741.5,601.5C 741.19,590.419 741.523,579.419 742.5,568.5 Z"/></g>
<g><path style="opacity:0.775" fill="#fefffe" d="M 758.5,568.5 C 760.5,568.5 762.5,568.5 764.5,568.5C 764.5,579.5 764.5,590.5 764.5,601.5C 762.5,601.5 760.5,601.5 758.5,601.5C 758.5,590.5 758.5,579.5 758.5,568.5 Z"/></g>
<g><path style="opacity:0.673" fill="#fefffe" d="M 766.5,568.5 C 768.5,568.5 770.5,568.5 772.5,568.5C 772.5,579.5 772.5,590.5 772.5,601.5C 770.167,601.5 767.833,601.5 765.5,601.5C 765.211,590.449 765.545,579.449 766.5,568.5 Z"/></g>
<g><path style="opacity:0.622" fill="#fefffe" d="M 773.5,568.5 C 778.375,569.272 783.208,569.605 788,569.5C 788.5,580.161 788.667,590.828 788.5,601.5C 783.5,601.5 778.5,601.5 773.5,601.5C 773.5,590.5 773.5,579.5 773.5,568.5 Z"/></g>
<g><path style="opacity:0.597" fill="#fefffe" d="M 790.5,568.5 C 792.144,568.286 793.644,568.62 795,569.5C 795.5,580.161 795.667,590.828 795.5,601.5C 793.5,601.5 791.5,601.5 789.5,601.5C 789.19,590.419 789.523,579.419 790.5,568.5 Z"/></g>
<g><path style="opacity:0.684" fill="#fefffe" d="M 798.5,568.5 C 800.467,568.261 802.301,568.594 804,569.5C 804.5,580.161 804.667,590.828 804.5,601.5C 802.167,601.5 799.833,601.5 797.5,601.5C 797.19,590.419 797.523,579.419 798.5,568.5 Z"/></g>
<g><path style="opacity:0.66" fill="#fefffe" d="M 805.5,568.5 C 810.167,569.833 814.833,569.833 819.5,568.5C 819.5,579.5 819.5,590.5 819.5,601.5C 814.833,601.5 810.167,601.5 805.5,601.5C 805.5,590.5 805.5,579.5 805.5,568.5 Z"/></g>
<g><path style="opacity:0.628" fill="#fefffe" d="M 596.5,603.5 C 706.167,603.333 815.834,603.5 925.5,604C 926.435,606.381 926.768,608.881 926.5,611.5C 816.5,611.5 706.5,611.5 596.5,611.5C 596.5,608.833 596.5,606.167 596.5,603.5 Z"/></g>
<g><path style="opacity:0.941" fill="#fefffe" d="M 620.5,643.5 C 712.484,644.662 804.484,644.829 896.5,644C 896.167,644.333 895.833,644.667 895.5,645C 896.579,645.956 897.745,646.789 899,647.5C 899.5,709.832 899.667,772.166 899.5,834.5C 898.5,834.5 897.5,834.5 896.5,834.5C 896.5,842.167 896.5,849.833 896.5,857.5C 877.556,858.622 858.722,858.622 840,857.5C 836.805,859.419 833.472,859.419 830,857.5C 829.502,854.183 829.335,850.85 829.5,847.5C 828.5,847.5 827.5,847.5 826.5,847.5C 826.169,796.262 826.503,745.095 827.5,694C 793.5,693.333 759.5,693.333 725.5,694C 726.888,694.889 726.722,695.389 725,695.5C 723.092,694.546 721.092,693.879 719,693.5C 711.239,693.712 703.406,693.712 695.5,693.5C 695.433,737.992 695.433,782.492 695.5,827C 695.167,833.167 694.833,839.333 694.5,845.5C 690.748,847.339 688.748,850.339 688.5,854.5C 665.5,854.5 642.5,854.5 619.5,854.5C 619.536,848.107 619.369,841.773 619,835.5C 619.333,835.833 619.667,836.167 620,836.5C 620.49,835.207 620.657,833.873 620.5,832.5C 619.167,832.5 617.833,832.5 616.5,832.5C 616.333,770.832 616.5,709.166 617,647.5C 618.72,646.616 619.886,645.283 620.5,643.5 Z"/></g>
<g><path style="opacity:0.005" fill="#fefffe" d="M 609.5,659.5 C 610.613,660.946 610.78,662.613 610,664.5C 608.481,662.861 608.314,661.194 609.5,659.5 Z"/></g>
<g><path style="opacity:0.004" fill="#fefffe" d="M 597.5,667.5 C 598.833,668.167 598.833,668.167 597.5,667.5 Z"/></g>
<g><path style="opacity:0.004" fill="#fefffe" d="M 600.5,667.5 C 601.833,668.167 601.833,668.167 600.5,667.5 Z"/></g>
<g><path style="opacity:0.004" fill="#fefffe" d="M 1160.5,686.5 C 1160.9,685.475 1161.56,685.308 1162.5,686C 1161.91,686.464 1161.24,686.631 1160.5,686.5 Z"/></g>
<g><path style="opacity:0.04" fill="#fefffe" d="M 601.5,764.5 C 600.5,764.5 599.5,764.5 598.5,764.5C 598.5,763.167 598.5,761.833 598.5,760.5C 599.5,760.5 600.5,760.5 601.5,760.5C 601.5,761.833 601.5,763.167 601.5,764.5 Z"/></g>
<g><path style="opacity:0.098" fill="#fefffe" d="M 601.5,764.5 C 604.519,764.972 605.519,766.472 604.5,769C 608.705,772.628 608.372,775.461 603.5,777.5C 603.879,773.424 602.879,769.757 600.5,766.5C 600.863,765.817 601.196,765.15 601.5,764.5 Z"/></g>
<g><path style="opacity:0.113" fill="#fefffe" d="M 603.5,780.5 C 604.5,780.5 605.5,780.5 606.5,780.5C 607.159,783.455 607.492,786.455 607.5,789.5C 605.876,789.64 604.71,788.973 604,787.5C 603.503,785.19 603.337,782.857 603.5,780.5 Z"/></g>
<g><path style="opacity:0.125" fill="#fefffe" d="M 604.5,790.5 C 605.5,790.5 606.5,790.5 607.5,790.5C 607.034,792.201 607.034,793.701 607.5,795C 606.833,795.667 606.167,796.333 605.5,797C 607.291,799.106 607.958,801.606 607.5,804.5C 606.167,804.5 604.833,804.5 603.5,804.5C 603.283,799.77 603.617,795.103 604.5,790.5 Z"/></g>
<g><path style="opacity:0.004" fill="#fefffe" d="M 279.5,793.5 C 279.369,792.761 279.536,792.094 280,791.5C 280.692,792.437 280.525,793.103 279.5,793.5 Z"/></g>
<g><path style="opacity:0.004" fill="#fefffe" d="M 565.5,805.5 C 566.573,806.251 566.74,807.251 566,808.5C 565.517,807.552 565.351,806.552 565.5,805.5 Z"/></g>
<g><path style="opacity:0.023" fill="#fefffe" d="M 605.5,810.5 C 604.086,808.402 604.752,807.402 607.5,807.5C 607.715,809.179 607.048,810.179 605.5,810.5 Z"/></g>
<g><path style="opacity:0.032" fill="#fefffe" d="M 1277.5,809.5 C 1278.83,809.5 1280.17,809.5 1281.5,809.5C 1280.63,812.062 1280.63,814.728 1281.5,817.5C 1279.9,817.688 1278.56,817.188 1277.5,816C 1277.78,814.044 1277.78,811.877 1277.5,809.5 Z"/></g>
<g><path style="opacity:0.083" fill="#fefffe" d="M 605.5,810.5 C 606.401,812.92 607.401,815.753 608.5,819C 606.397,820.364 604.897,819.53 604,816.5C 603.833,815.5 603.667,814.5 603.5,813.5C 603.64,811.97 604.307,810.97 605.5,810.5 Z"/></g>
<g><path style="opacity:0.045" fill="#fefffe" d="M 264.5,822.5 C 267.167,823.167 269.833,823.833 272.5,824.5C 272.67,825.822 272.337,826.989 271.5,828C 265.784,829.759 263.45,827.926 264.5,822.5 Z"/></g>
</svg>
