<?xml version="1.0" encoding="UTF-8"?>
<!DOCTYPE svg PUBLIC "-//W3C//DTD SVG 1.1//EN" "http://www.w3.org/Graphics/SVG/1.1/DTD/svg11.dtd">
<svg xmlns="http://www.w3.org/2000/svg" version="1.1" width="1500px" height="1000px" style="shape-rendering:geometricPrecision; text-rendering:geometricPrecision; image-rendering:optimizeQuality; fill-rule:evenodd; clip-rule:evenodd" xmlns:xlink="http://www.w3.org/1999/xlink">
<g><path style="opacity:0.939" fill="#fefffe" d="M 362.5,365.5 C 362.973,366.906 363.973,367.573 365.5,367.5C 367.048,368.794 369.048,369.461 371.5,369.5C 381.969,367.797 392.302,366.797 402.5,366.5C 403.711,367.274 403.711,368.107 402.5,369C 406.486,369.499 410.486,369.666 414.5,369.5C 414.351,368.448 414.517,367.448 415,366.5C 424.75,367.486 434.584,367.819 444.5,367.5C 444.5,366.5 444.5,365.5 444.5,364.5C 452.395,363.43 460.228,363.43 468,364.5C 468.362,359.319 468.862,354.152 469.5,349C 468.488,341.936 469.488,335.103 472.5,328.5C 471.772,326.845 471.605,325.179 472,323.5C 472.333,323.833 472.667,324.167 473,324.5C 473.16,320.713 473.826,317.046 475,313.5C 475.333,313.833 475.667,314.167 476,314.5C 476.499,310.179 476.666,305.846 476.5,301.5C 477.5,301.5 478.5,301.5 479.5,301.5C 479.17,294.468 479.503,287.468 480.5,280.5C 481.507,276.246 482.84,272.246 484.5,268.5C 488.83,269.268 492.163,267.935 494.5,264.5C 491.333,260.851 488.833,256.851 487,252.5C 486.316,251.216 486.483,250.049 487.5,249C 486.552,248.517 485.552,248.351 484.5,248.5C 484.514,245.373 483.514,242.707 481.5,240.5C 482.672,236.554 481.006,234.887 476.5,235.5C 476.706,232.003 475.372,229.337 472.5,227.5C 466.437,221.387 460.27,215.387 454,209.5C 451.162,204.77 448.829,200.103 447,195.5C 440.748,192.803 435.581,188.803 431.5,183.5C 430.526,181.257 430.192,178.924 430.5,176.5C 648.358,177.715 866.191,178.715 1084,179.5C 1086.63,177.932 1088.8,178.432 1090.5,181C 1091.21,182.875 1091.21,185.042 1090.5,187.5C 1084.85,192.652 1079.35,197.985 1074,203.5C 1072.17,205.48 1071.34,207.813 1071.5,210.5C 1070.32,210.281 1069.32,210.614 1068.5,211.5C 1060.83,220.5 1052.5,228.833 1043.5,236.5C 1041.71,240.568 1040.04,244.568 1038.5,248.5C 1037.5,248.5 1036.5,248.5 1035.5,248.5C 1034.96,253.178 1033.3,257.345 1030.5,261C 1031.88,262.957 1031.22,263.957 1028.5,264C 1029.71,265.113 1029.71,266.28 1028.5,267.5C 1031.77,268.487 1035.1,268.82 1038.5,268.5C 1038.5,270.167 1038.5,271.833 1038.5,273.5C 1039.5,273.5 1040.5,273.5 1041.5,273.5C 1041.58,282.593 1042.58,291.593 1044.5,300.5C 1045.09,300.709 1045.59,301.043 1046,301.5C 1047.49,312.536 1049.66,323.536 1052.5,334.5C 1053.09,334.709 1053.59,335.043 1054,335.5C 1054.17,345.675 1054.67,355.675 1055.5,365.5C 1055.81,366.478 1056.48,367.145 1057.5,367.5C 1058.77,366.572 1060.1,366.405 1061.5,367C 1061.04,367.414 1060.71,367.914 1060.5,368.5C 1092.83,369.667 1125.16,369.833 1157.5,369C 1158.71,367.961 1159.71,366.794 1160.5,365.5C 1161.12,365.389 1161.62,365.056 1162,364.5C 1162.47,325.395 1162.63,286.395 1162.5,247.5C 1163.55,247.649 1164.55,247.483 1165.5,247C 1165.17,246.667 1164.83,246.333 1164.5,246C 1167.58,243.677 1170.08,240.843 1172,237.5C 1172.83,234.398 1171.83,232.064 1169,230.5C 1168.67,230.833 1168.33,231.167 1168,231.5C 1167.52,230.552 1167.35,229.552 1167.5,228.5C 1154.19,215.849 1140.69,202.516 1127,188.5C 1126.26,185.438 1126.43,182.438 1127.5,179.5C 1170.49,178.5 1213.49,178.167 1256.5,178.5C 1256.5,179.5 1256.5,180.5 1256.5,181.5C 1257.5,181.5 1258.5,181.5 1259.5,181.5C 1261.91,189.84 1263.58,198.506 1264.5,207.5C 1265.5,207.5 1266.5,207.5 1267.5,207.5C 1267.19,210.247 1267.52,212.914 1268.5,215.5C 1271.24,219.586 1273.41,223.92 1275,228.5C 1275.46,234.922 1276.46,241.256 1278,247.5C 1279.29,249.553 1280.62,251.553 1282,253.5C 1283.76,260.053 1284.6,266.719 1284.5,273.5C 1285.5,273.5 1286.5,273.5 1287.5,273.5C 1288.17,278.5 1288.83,283.5 1289.5,288.5C 1290.5,288.5 1291.5,288.5 1292.5,288.5C 1292.15,291.045 1292.98,293.045 1295,294.5C 1296.38,300.787 1297.55,307.121 1298.5,313.5C 1299.09,313.709 1299.59,314.043 1300,314.5C 1300.51,318.708 1301.68,322.708 1303.5,326.5C 1301.72,328.935 1302.39,329.935 1305.5,329.5C 1305.34,332.187 1305.5,334.854 1306,337.5C 1307.02,336.366 1307.68,336.699 1308,338.5C 1309.7,345.606 1311.53,352.606 1313.5,359.5C 1314.09,359.709 1314.59,360.043 1315,360.5C 1316.64,368.766 1318.64,376.766 1321,384.5C 1321.75,387.799 1323.08,390.799 1325,393.5C 1325.18,396.882 1325.68,400.215 1326.5,403.5C 1327.09,403.291 1327.59,402.957 1328,402.5C 1328.5,407.155 1328.67,411.821 1328.5,416.5C 1210.5,416.833 1092.5,416.5 974.5,415.5C 973.22,413.298 973.22,411.132 974.5,409C 967.247,402.216 960.247,395.216 953.5,388C 951.52,385.836 949.187,384.336 946.5,383.5C 946.719,382.325 946.386,381.325 945.5,380.5C 936.325,370.159 926.325,360.659 915.5,352C 915.833,351.667 916.167,351.333 916.5,351C 906.319,341.429 896.819,331.929 888,322.5C 879.944,314.726 872.111,306.726 864.5,298.5C 862.377,296.69 860.043,295.357 857.5,294.5C 857.167,291.5 855.5,289.833 852.5,289.5C 852.719,288.325 852.386,287.325 851.5,286.5C 822.219,256.677 792.719,227.01 763,197.5C 762.667,197.833 762.333,198.167 762,198.5C 761.751,197.376 761.251,196.376 760.5,195.5C 758.778,199.618 755.778,202.284 751.5,203.5C 748.21,206.735 745.544,210.402 743.5,214.5C 741.922,215.298 740.256,215.798 738.5,216C 738.833,216.333 739.167,216.667 739.5,217C 719.628,236.04 699.961,255.207 680.5,274.5C 681.326,275.451 681.492,276.451 681,277.5C 676.856,280.149 673.022,283.149 669.5,286.5C 668.719,287.729 668.219,289.062 668,290.5C 658.442,299.581 648.942,308.748 639.5,318C 639.833,318.333 640.167,318.667 640.5,319C 637.018,321.312 633.351,323.479 629.5,325.5C 628.047,327.467 627.047,329.633 626.5,332C 624.744,332.202 623.078,332.702 621.5,333.5C 611.357,345.231 600.357,356.065 588.5,366C 589.517,367.049 589.684,368.216 589,369.5C 575.677,382.156 562.677,395.156 550,408.5C 549.955,411.334 549.121,413.834 547.5,416C 467.167,416.333 386.833,416.667 306.5,417C 307.833,417.667 307.833,418.333 306.5,419C 301.833,419.667 297.167,419.667 292.5,419C 291.167,418.333 291.167,417.667 292.5,417C 261.833,416.333 231.167,416.333 200.5,417C 201.249,418.734 201.749,420.567 202,422.5C 206.436,421.526 210.936,421.526 215.5,422.5C 215.966,424.201 215.966,425.701 215.5,427C 208.477,427.623 201.477,427.457 194.5,426.5C 192.774,420.021 192.274,412.688 193,404.5C 193.333,404.833 193.667,405.167 194,405.5C 194.182,402.774 194.682,400.107 195.5,397.5C 196.086,397.709 196.586,398.043 197,398.5C 195.989,390.555 198.489,384.221 204.5,379.5C 207.08,373.532 208.247,367.199 208,360.5C 209.667,359.167 211.333,357.833 213,356.5C 213.492,355.451 213.326,354.451 212.5,353.5C 213.242,352.713 214.075,352.047 215,351.5C 215.173,347.459 215.673,343.459 216.5,339.5C 217.308,339.192 217.975,338.692 218.5,338C 217.409,335.936 217.242,333.769 218,331.5C 218.914,332.654 219.747,332.487 220.5,331C 219.446,329.612 219.28,328.112 220,326.5C 221.642,323.116 223.142,319.782 224.5,316.5C 225.318,313.893 225.818,311.226 226,308.5C 226.333,308.833 226.667,309.167 227,309.5C 227.333,307.167 227.667,304.833 228,302.5C 228.414,302.043 228.914,301.709 229.5,301.5C 230.492,297.217 230.826,292.884 230.5,288.5C 233.761,288.9 234.428,287.733 232.5,285C 232.468,283.029 233.302,281.529 235,280.5C 235.497,278.19 235.663,275.857 235.5,273.5C 236.5,273.5 237.5,273.5 238.5,273.5C 239.643,269.256 240.31,264.923 240.5,260.5C 241.5,260.5 242.5,260.5 243.5,260.5C 243.334,256.486 243.501,252.486 244,248.5C 244.75,247.874 245.584,247.374 246.5,247C 245.577,244.959 245.244,242.792 245.5,240.5C 246.5,240.5 247.5,240.5 248.5,240.5C 248.5,238.833 248.5,237.167 248.5,235.5C 249.675,235.719 250.675,235.386 251.5,234.5C 250.211,228.857 250.211,223.19 251.5,217.5C 254.108,215.892 255.442,213.559 255.5,210.5C 256.5,210.5 257.5,210.5 258.5,210.5C 258.15,205.547 259.483,201.213 262.5,197.5C 263.327,193.541 263.827,189.541 264,185.5C 265.852,183.441 267.018,181.274 267.5,179C 298.678,178.201 329.845,178.367 361,179.5C 372.78,177.802 384.614,176.802 396.5,176.5C 396.666,180.846 396.499,185.179 396,189.5C 383.058,200.688 371.558,212.522 361.5,225C 358.055,227.268 354.722,229.768 351.5,232.5C 351.167,233.833 350.833,235.167 350.5,236.5C 350.633,239.414 351.8,241.747 354,243.5C 354.333,243.167 354.667,242.833 355,242.5C 357,244.5 359,246.5 361,248.5C 361.167,287.669 361.667,326.669 362.5,365.5 Z"/></g>
<g><path style="opacity:0.963" fill="#fefffe" d="M 760.5,208.5 C 818.379,264.879 875.712,321.712 932.5,379C 943.526,387.186 954.192,395.852 964.5,405C 964.387,406.28 963.72,407.113 962.5,407.5C 935.876,406.895 909.209,406.895 882.5,407.5C 883.2,403.202 883.533,398.869 883.5,394.5C 802.485,394.527 721.485,393.86 640.5,392.5C 640.5,397.167 640.5,401.833 640.5,406.5C 616.498,406.667 592.498,406.5 568.5,406C 566.676,403.919 565.009,404.085 563.5,406.5C 561.31,405.252 560.977,403.586 562.5,401.5C 629.172,337.566 695.172,273.233 760.5,208.5 Z"/></g>
<g><path style="opacity:0.004" fill="#fefffe" d="M 472.5,227.5 C 471.833,228.167 471.833,228.167 472.5,227.5 Z"/></g>
<g><path style="opacity:0.004" fill="#fefffe" d="M 362.5,364.5 C 363.833,365.167 363.833,365.167 362.5,364.5 Z"/></g>
<g><path style="opacity:0.004" fill="#fefffe" d="M 1055.5,364.5 C 1056.83,365.167 1056.83,365.167 1055.5,364.5 Z"/></g>
<g><path style="opacity:0.004" fill="#fefffe" d="M 1160.5,365.5 C 1159.83,364.167 1159.83,364.167 1160.5,365.5 Z"/></g>
<g><path style="opacity:0.004" fill="#fefffe" d="M 365.5,366.5 C 366.833,367.167 366.833,367.167 365.5,366.5 Z"/></g>
<g><path style="opacity:0.088" fill="#fefffe" d="M 578.5,425.5 C 579.822,425.33 580.989,425.663 582,426.5C 582.667,431.167 582.667,435.833 582,440.5C 579.45,441.98 577.617,441.313 576.5,438.5C 579.213,434.998 579.546,431.498 577.5,428C 577.743,427.098 578.077,426.265 578.5,425.5 Z"/></g>
<g><path style="opacity:0.007" fill="#fefffe" d="M 461.5,458.5 C 459.824,457.817 459.157,456.483 459.5,454.5C 460.5,454.5 461.5,454.5 462.5,454.5C 462.567,455.959 462.234,457.292 461.5,458.5 Z"/></g>
<g><path style="opacity:0.169" fill="#fefffe" d="M 461.5,458.5 C 483.124,457.355 504.79,457.189 526.5,458C 527.38,459.356 527.714,460.856 527.5,462.5C 506.833,462.5 486.167,462.5 465.5,462.5C 465.599,471.521 465.266,480.521 464.5,489.5C 463.5,489.5 462.5,489.5 461.5,489.5C 461.5,490.5 461.5,491.5 461.5,492.5C 458.15,492.665 454.817,492.498 451.5,492C 451.833,491.667 452.167,491.333 452.5,491C 449.993,490.907 447.826,490.074 446,488.5C 445.383,487.551 445.549,486.718 446.5,486C 450.869,486.27 455.202,486.104 459.5,485.5C 459,484.5 458.5,483.5 458,482.5C 456.989,483.337 455.822,483.67 454.5,483.5C 454.744,479.211 456.411,478.544 459.5,481.5C 460.23,473.809 460.897,466.143 461.5,458.5 Z"/></g>
<g><path style="opacity:0.094" fill="#fefffe" d="M 539.5,485.5 C 541.344,487.279 542.01,489.612 541.5,492.5C 539.167,492.5 536.833,492.5 534.5,492.5C 535.702,489.944 537.369,487.611 539.5,485.5 Z"/></g>
</svg>
