<?xml version="1.0" encoding="UTF-8"?>
<!DOCTYPE svg PUBLIC "-//W3C//DTD SVG 1.1//EN" "http://www.w3.org/Graphics/SVG/1.1/DTD/svg11.dtd">
<svg xmlns="http://www.w3.org/2000/svg" version="1.1" width="1500px" height="1000px" style="shape-rendering:geometricPrecision; text-rendering:geometricPrecision; image-rendering:optimizeQuality; fill-rule:evenodd; clip-rule:evenodd" xmlns:xlink="http://www.w3.org/1999/xlink">
<g><path style="opacity:0.974" fill="#fefffe" d="M 269.5,309.5 C 298.095,294.535 326.428,279.035 354.5,263C 415.503,262.167 476.503,262.333 537.5,263.5C 531.948,268.546 525.948,273.046 519.5,277C 486.167,298 452.833,319 419.5,340C 418.594,341.699 418.261,343.533 418.5,345.5C 414.116,345.174 409.783,345.508 405.5,346.5C 407.913,353.913 412.913,358.579 420.5,360.5C 420.5,366.5 420.5,372.5 420.5,378.5C 425.295,380.398 429.962,382.564 434.5,385C 433.833,385.667 433.167,386.333 432.5,387C 332.433,387.484 232.433,387.65 132.5,387.5C 131.479,386.998 131.312,386.332 132,385.5C 135.168,383.154 138.335,380.821 141.5,378.5C 152.958,372.867 164.292,367.033 175.5,361C 179.334,358.581 183.001,355.914 186.5,353C 193.553,351.48 200.219,348.813 206.5,345C 227.562,333.139 248.562,321.306 269.5,309.5 Z"/></g>
<g><path style="opacity:0.966" fill="#fefffe" d="M 973.5,266.5 C 1019.71,267.154 1065.88,267.821 1112,268.5C 1119.14,267.184 1126.31,267.351 1133.5,269C 1203.03,307.525 1272.86,346.025 1343,384.5C 1343.33,384.167 1343.67,383.833 1344,383.5C 1346.7,385.902 1349.87,387.235 1353.5,387.5C 1353.48,391.106 1351.64,393.106 1348,393.5C 1267.9,391.711 1187.74,390.711 1107.5,390.5C 1094.26,390.504 1081.09,390.838 1068,391.5C 1067.38,390.551 1067.55,389.718 1068.5,389C 1074.29,386.791 1079.96,384.291 1085.5,381.5C 1086.5,374.866 1086.83,368.2 1086.5,361.5C 1090.89,360.689 1094.73,358.689 1098,355.5C 1098.05,352.666 1098.88,350.166 1100.5,348C 1096.5,347.667 1092.5,347.333 1088.5,347C 1087.55,345.045 1086.21,343.378 1084.5,342C 1050.5,320 1016.5,298 982.5,276C 979.774,273.383 976.94,270.883 974,268.5C 973.536,267.906 973.369,267.239 973.5,266.5 Z"/></g>
<g><path style="opacity:0.008" fill="#fefffe" d="M 269.5,309.5 C 268.833,308.167 268.833,308.167 269.5,309.5 Z"/></g>
</svg>
