<?xml version="1.0" encoding="UTF-8"?>
<!DOCTYPE svg PUBLIC "-//W3C//DTD SVG 1.1//EN" "http://www.w3.org/Graphics/SVG/1.1/DTD/svg11.dtd">
<svg xmlns="http://www.w3.org/2000/svg" version="1.1" width="1500px" height="1000px" style="shape-rendering:geometricPrecision; text-rendering:geometricPrecision; image-rendering:optimizeQuality; fill-rule:evenodd; clip-rule:evenodd" xmlns:xlink="http://www.w3.org/1999/xlink">
<g><path style="opacity:0.95" fill="#fefffe" d="M 649.5,419.5 C 748.834,419.333 848.167,419.5 947.5,420C 949.044,420.29 950.377,420.956 951.5,422C 962.828,422.5 974.162,422.667 985.5,422.5C 985.632,492.175 984.965,561.842 983.5,631.5C 980.5,632.647 977.5,632.813 974.5,632C 973.903,633.889 973.569,635.722 973.5,637.5C 969.187,636.229 964.854,636.229 960.5,637.5C 959.068,637.267 958.568,636.6 959,635.5C 961.409,633.401 964.076,631.734 967,630.5C 967.49,629.207 967.657,627.873 967.5,626.5C 954.907,626.045 942.24,625.711 929.5,625.5C 929.233,619.023 929.9,612.69 931.5,606.5C 933.591,606.682 935.591,606.348 937.5,605.5C 938.386,604.675 938.719,603.675 938.5,602.5C 936.833,602.5 935.167,602.5 933.5,602.5C 934.971,594.868 936.471,587.201 938,579.5C 939.262,575.091 938.428,571.257 935.5,568C 930.177,567.501 924.844,567.334 919.5,567.5C 919.513,531.792 919.513,496.292 919.5,461C 920.253,459.513 921.086,459.346 922,460.5C 923.02,459.109 923.853,457.609 924.5,456C 923.167,453.667 923.167,451.333 924.5,449C 887.833,448.333 851.167,448.333 814.5,449C 815.833,452.333 815.833,455.667 814.5,459C 815.766,459.309 816.933,459.809 818,460.5C 818.5,519.166 818.667,577.832 818.5,636.5C 813.833,636.5 809.167,636.5 804.5,636.5C 804.5,577.167 804.5,517.833 804.5,458.5C 806.5,458.5 808.5,458.5 810.5,458.5C 810.5,455.167 810.5,451.833 810.5,448.5C 771.167,448.5 731.833,448.5 692.5,448.5C 692.5,452.5 692.5,456.5 692.5,460.5C 693.833,460.5 695.167,460.5 696.5,460.5C 696.5,519.5 696.5,578.5 696.5,637.5C 692.167,637.5 687.833,637.5 683.5,637.5C 683.5,578.5 683.5,519.5 683.5,460.5C 685.167,460.5 686.833,460.5 688.5,460.5C 688.5,456.167 688.5,451.833 688.5,447.5C 651.5,447.5 614.5,447.5 577.5,447.5C 577.5,451.5 577.5,455.5 577.5,459.5C 578.833,459.5 580.167,459.5 581.5,459.5C 581.5,495.5 581.5,531.5 581.5,567.5C 577.818,567.335 574.152,567.501 570.5,568C 567.223,569.143 563.89,569.977 560.5,570.5C 560.367,576.762 562.034,582.429 565.5,587.5C 565.167,588.167 564.833,588.833 564.5,589.5C 567.021,594.179 568.021,599.179 567.5,604.5C 566.178,604.67 565.011,604.337 564,603.5C 563.333,604.5 563.333,605.5 564,606.5C 564.333,606.167 564.667,605.833 565,605.5C 567.635,606.473 569.635,608.14 571,610.5C 572.664,616.82 574.164,623.153 575.5,629.5C 575.167,631.833 574.833,634.167 574.5,636.5C 560.212,637.649 545.878,637.816 531.5,637C 528.607,634.779 525.274,633.612 521.5,633.5C 521.833,562.44 521.166,491.44 519.5,420.5C 524.276,422.044 529.276,422.711 534.5,422.5C 538.947,422.604 543.28,422.104 547.5,421C 581.669,420.832 615.669,420.332 649.5,419.5 Z"/></g>
<g><path style="opacity:0.942" fill="#fefffe" d="M 266.5,610.5 C 264.83,610.751 263.33,611.418 262,612.5C 261.667,610.5 261.333,608.5 261,606.5C 260.439,605.978 259.772,605.645 259,605.5C 257.017,606.909 254.85,607.909 252.5,608.5C 249.407,611.333 246.407,614.333 243.5,617.5C 242.205,618.098 240.872,618.598 239.5,619C 241.929,619.451 242.096,620.285 240,621.5C 237.225,619.039 234.225,617.039 231,615.5C 230.405,616.899 230.572,618.232 231.5,619.5C 229.22,623.668 226.053,627.001 222,629.5C 221.667,629.167 221.333,628.833 221,628.5C 218.483,631.181 215.649,633.514 212.5,635.5C 211.5,634.167 210.5,634.167 209.5,635.5C 207.235,634.021 204.901,632.687 202.5,631.5C 203.025,630.808 203.692,630.308 204.5,630C 202.787,626.765 200.787,623.765 198.5,621C 202.34,619.36 202.34,617.86 198.5,616.5C 199.651,615.269 200.817,615.269 202,616.5C 202.167,616 202.333,615.5 202.5,615C 200.347,612.901 199.68,610.567 200.5,608C 198.595,607.174 198.261,606.007 199.5,604.5C 200.609,605.59 201.609,605.59 202.5,604.5C 201.87,601.053 201.537,597.553 201.5,594C 203.3,560.664 203.967,527.33 203.5,494C 205.81,480.575 206.143,467.075 204.5,453.5C 206.094,443.045 207.094,432.545 207.5,422C 303.167,421.333 398.833,421.333 494.5,422C 495.81,427.757 496.476,433.757 496.5,440C 496.423,447.193 496.09,454.359 495.5,461.5C 487.493,461.666 479.493,461.5 471.5,461C 469.299,457.014 468.965,452.848 470.5,448.5C 413.837,447.5 357.171,447.167 300.5,447.5C 300.5,451.167 300.5,454.833 300.5,458.5C 304.514,458.334 308.514,458.501 312.5,459C 315.282,462.113 314.949,462.779 311.5,461C 299.838,460.5 288.171,460.333 276.5,460.5C 276.207,501.352 275.207,542.519 273.5,584C 274.047,591.827 274.381,599.66 274.5,607.5C 272.856,607.714 271.356,607.38 270,606.5C 268.624,607.705 267.458,609.038 266.5,610.5 Z"/></g>
<g><path style="opacity:0.903" fill="#fefffe" d="M 1256.5,622.5 C 1254.31,620.318 1252.65,620.484 1251.5,623C 1250.13,623.402 1248.79,623.902 1247.5,624.5C 1246.48,622.812 1245.15,621.479 1243.5,620.5C 1243.38,619.414 1242.71,618.747 1241.5,618.5C 1239.11,618.74 1237.11,619.74 1235.5,621.5C 1234.81,620.975 1234.31,620.308 1234,619.5C 1233.75,620.624 1233.25,621.624 1232.5,622.5C 1231.23,622.254 1230.06,622.254 1229,622.5C 1227.88,624.42 1227.04,626.42 1226.5,628.5C 1223.45,629.394 1220.45,629.561 1217.5,629C 1217.27,633.009 1215.94,636.842 1213.5,640.5C 1211.67,639.948 1210,639.948 1208.5,640.5C 1207.81,639.975 1207.31,639.308 1207,638.5C 1203.26,641.212 1202.76,640.712 1205.5,637C 1204.83,636.667 1204.17,636.333 1203.5,636C 1204.33,633.919 1204.33,631.752 1203.5,629.5C 1204.57,628.749 1204.74,627.749 1204,626.5C 1203.59,626.957 1203.09,627.291 1202.5,627.5C 1199.73,624.907 1196.73,623.907 1193.5,624.5C 1192.69,625.429 1191.85,626.429 1191,627.5C 1190.4,625.641 1189.57,625.308 1188.5,626.5C 1187.5,626.586 1186.67,626.252 1186,625.5C 1185.17,628 1184,628.167 1182.5,626C 1183.89,625.111 1183.72,624.611 1182,624.5C 1181.05,624.905 1180.39,625.572 1180,626.5C 1179.09,625.346 1178.25,625.513 1177.5,627C 1178.5,627.833 1179.5,628.667 1180.5,629.5C 1178.98,631.168 1177.32,632.501 1175.5,633.5C 1173.86,632.782 1172.2,632.616 1170.5,633C 1169.83,633.986 1169.83,635.153 1170.5,636.5C 1168.18,637.327 1166.18,638.66 1164.5,640.5C 1163.5,638.458 1162.16,638.125 1160.5,639.5C 1159.65,640.522 1158.65,641.355 1157.5,642C 1161.24,643.507 1161.24,644.34 1157.5,644.5C 1155.74,646.633 1155.07,648.966 1155.5,651.5C 1153.33,652.893 1151.49,652.56 1150,650.5C 1149.63,651.91 1148.8,652.91 1147.5,653.5C 1145.4,652.727 1143.07,652.727 1140.5,653.5C 1137.34,652.96 1134.34,651.96 1131.5,650.5C 1131.36,649.236 1131.36,648.069 1131.5,647C 1130.26,646.689 1129.26,647.189 1128.5,648.5C 1126.05,647.212 1124.05,645.546 1122.5,643.5C 1121.23,642.811 1121.23,641.977 1122.5,641C 1121,639.885 1119.33,639.052 1117.5,638.5C 1117.26,639.247 1116.93,640.08 1116.5,641C 1112.16,643.126 1107.66,644.959 1103,646.5C 1102,645.833 1101,645.167 1100,644.5C 1099,645.833 1098,645.833 1097,644.5C 1095.73,646.836 1094.23,646.836 1092.5,644.5C 1093.33,643.549 1093.49,642.549 1093,641.5C 1092.22,642.728 1091.22,643.728 1090,644.5C 1089.5,644.167 1089,643.833 1088.5,643.5C 1089.37,641.942 1090.37,640.275 1091.5,638.5C 1088.64,637.694 1088.14,636.361 1090,634.5C 1090.42,635.956 1091.26,636.456 1092.5,636C 1091.19,634.605 1091.52,633.605 1093.5,633C 1091.52,632.395 1091.19,631.395 1092.5,630C 1092,629.5 1091.5,629 1091,628.5C 1090.01,629.171 1088.85,629.171 1087.5,628.5C 1087.17,627.167 1086.83,627.167 1086.5,628.5C 1085.03,631.258 1084.37,630.925 1084.5,627.5C 1083.18,627.67 1082.01,627.337 1081,626.5C 1080.5,627 1080,627.5 1079.5,628C 1080.79,628.49 1082.13,628.657 1083.5,628.5C 1083.69,630.103 1083.19,631.437 1082,632.5C 1078.95,630.626 1075.79,628.96 1072.5,627.5C 1074.46,625.731 1076.46,625.065 1078.5,625.5C 1077.96,624.252 1077.29,623.085 1076.5,622C 1077.83,620.333 1077.83,618.667 1076.5,617C 1077.5,616.667 1078.5,616.333 1079.5,616C 1079.17,615.667 1078.83,615.333 1078.5,615C 1113.5,614.333 1148.5,614.333 1183.5,615C 1195.09,616.436 1206.76,616.936 1218.5,616.5C 1217.92,611.025 1218.59,605.858 1220.5,601C 1219.17,593 1219.17,585 1220.5,577C 1219.19,571.243 1218.52,565.243 1218.5,559C 1217.79,527.163 1216.96,495.33 1216,463.5C 1215.5,463 1215,462.5 1214.5,462C 1206.51,461.5 1198.51,461.334 1190.5,461.5C 1190.5,457.5 1190.5,453.5 1190.5,449.5C 1135.86,448.513 1081.2,448.179 1026.5,448.5C 1026.5,452.833 1026.5,457.167 1026.5,461.5C 1020.83,461.5 1015.17,461.5 1009.5,461.5C 1009.19,455.242 1009.52,449.076 1010.5,443C 1008.57,436.789 1007.9,430.289 1008.5,423.5C 1102.5,423.5 1196.5,423.5 1290.5,423.5C 1290.33,429.509 1290.5,435.509 1291,441.5C 1292.33,442.833 1293.67,444.167 1295,445.5C 1295.72,447.112 1295.55,448.612 1294.5,450C 1295.36,450.689 1296.02,451.522 1296.5,452.5C 1295.06,454.514 1293.73,456.514 1292.5,458.5C 1293.04,468.982 1293.04,479.648 1292.5,490.5C 1293.77,506.413 1294.6,522.413 1295,538.5C 1296.23,540.02 1297.4,540.853 1298.5,541C 1297.98,544.652 1296.98,548.152 1295.5,551.5C 1297.03,553.226 1298.03,555.226 1298.5,557.5C 1297.64,563.288 1296.98,569.122 1296.5,575C 1297.42,590.132 1297.76,605.298 1297.5,620.5C 1296.5,620.5 1295.5,620.5 1294.5,620.5C 1294.74,624.432 1293.07,627.266 1289.5,629C 1289.83,629.333 1290.17,629.667 1290.5,630C 1288.24,629.302 1286.4,629.802 1285,631.5C 1284.19,627.551 1283.69,627.551 1283.5,631.5C 1282.5,631.5 1281.5,631.5 1280.5,631.5C 1280.33,630.178 1280.66,629.011 1281.5,628C 1280.23,627.691 1279.07,627.191 1278,626.5C 1275.03,629.265 1272.37,628.932 1270,625.5C 1266.07,627.884 1265.57,627.051 1268.5,623C 1268,622.5 1267.5,622 1267,621.5C 1265.11,622.754 1262.78,624.087 1260,625.5C 1258.38,624.461 1257.22,623.461 1256.5,622.5 Z M 1176.5,630.5 C 1175.54,629.637 1175.54,628.97 1176.5,628.5C 1177.77,629.257 1177.77,629.923 1176.5,630.5 Z M 1175.5,633.5 C 1175.5,634.5 1175.5,635.5 1175.5,636.5C 1174.52,635.859 1173.52,635.193 1172.5,634.5C 1171.7,634.957 1171.37,635.624 1171.5,636.5C 1171.17,636.5 1170.83,636.5 1170.5,636.5C 1169.83,635.153 1169.83,633.986 1170.5,633C 1172.2,632.616 1173.86,632.782 1175.5,633.5 Z M 1151.5,637.5 C 1152.85,638.527 1153.35,639.86 1153,641.5C 1151.81,640.437 1151.31,639.103 1151.5,637.5 Z M 1122.5,643.5 C 1123.21,642.596 1124.21,642.263 1125.5,642.5C 1125.63,643.239 1125.46,643.906 1125,644.5C 1124.33,643.748 1123.5,643.414 1122.5,643.5 Z M 1153.5,643.5 C 1154.55,643.351 1155.55,643.517 1156.5,644C 1155.33,644.5 1154.5,645.333 1154,646.5C 1153.52,645.552 1153.35,644.552 1153.5,643.5 Z M 1153.5,648.5 C 1152.64,649.463 1151.97,649.463 1151.5,648.5C 1152.26,647.227 1152.92,647.227 1153.5,648.5 Z"/></g>
<g><path style="opacity:0.016" fill="#fefffe" d="M 562.5,577.5 C 563.525,577.897 563.692,578.563 563,579.5C 562.536,578.906 562.369,578.239 562.5,577.5 Z"/></g>
<g><path style="opacity:0.004" fill="#fefffe" d="M 566.5,590.5 C 567.833,591.167 567.833,591.167 566.5,590.5 Z"/></g>
<g><path style="opacity:0.765" fill="#fefffe" d="M 405.5,635.5 C 404.561,632.894 402.894,630.894 400.5,629.5C 399.399,630.598 398.066,630.765 396.5,630C 394.445,626.791 391.778,625.625 388.5,626.5C 387.063,625.275 385.396,624.275 383.5,623.5C 383.167,624.167 382.833,624.833 382.5,625.5C 380.5,624.833 378.5,624.167 376.5,623.5C 375.893,623.624 375.56,623.957 375.5,624.5C 374.833,624.5 374.167,624.5 373.5,624.5C 372.235,623.521 370.901,622.521 369.5,621.5C 368.893,621.624 368.56,621.957 368.5,622.5C 367.504,622.586 366.671,622.252 366,621.5C 365.692,622.308 365.192,622.975 364.5,623.5C 361.563,622.725 358.563,622.725 355.5,623.5C 350.522,623.147 350.188,624.147 354.5,626.5C 355.953,626.929 357.619,627.096 359.5,627C 356.017,629.684 352.184,630.184 348,628.5C 346.933,629.191 345.766,629.691 344.5,630C 345.337,631.011 345.67,632.178 345.5,633.5C 343.876,633.64 342.71,632.973 342,631.5C 339.848,632.885 337.515,633.885 335,634.5C 333.068,632.784 330.901,631.451 328.5,630.5C 329.274,629.289 330.107,629.289 331,630.5C 331.418,628.212 330.751,626.212 329,624.5C 327.933,625.191 326.766,625.691 325.5,626C 326.696,626.654 326.696,627.154 325.5,627.5C 321.791,625.272 317.791,623.772 313.5,623C 312.663,621.989 312.33,620.822 312.5,619.5C 309.99,619.009 307.656,618.009 305.5,616.5C 305.833,616.167 306.167,615.833 306.5,615.5C 308.444,616.189 310.444,616.689 312.5,617C 364.5,617.667 416.5,617.667 468.5,617C 468.833,616.667 469.167,616.333 469.5,616C 469.055,612.33 468.055,608.83 466.5,605.5C 467.376,604.749 468.376,604.249 469.5,604C 475.5,603.333 481.5,603.333 487.5,604C 488.624,604.249 489.624,604.749 490.5,605.5C 489.853,616.288 489.353,627.288 489,638.5C 485.008,638.995 481.341,640.329 478,642.5C 477.503,645.146 477.336,647.813 477.5,650.5C 473.865,651.114 470.198,651.448 466.5,651.5C 466.719,652.675 466.386,653.675 465.5,654.5C 462.606,654.661 459.606,654.328 456.5,653.5C 454.598,655.151 452.598,655.484 450.5,654.5C 447.17,655.094 443.836,655.76 440.5,656.5C 439.5,659.167 438.5,659.167 437.5,656.5C 436.311,655.571 434.978,655.238 433.5,655.5C 433.5,653.833 433.5,652.167 433.5,650.5C 430.413,650.543 427.413,650.71 424.5,651C 423.167,650 423.167,649 424.5,648C 422.874,648.195 421.207,648.195 419.5,648C 416.112,644.468 412.445,641.301 408.5,638.5C 408.709,637.914 409.043,637.414 409.5,637C 407.942,636.79 406.609,636.29 405.5,635.5 Z M 343.5,623.5 C 345.144,623.714 346.644,623.38 348,622.5C 348.637,624.303 349.803,625.636 351.5,626.5C 350.467,627.452 349.3,627.452 348,626.5C 345.684,626.934 343.684,627.934 342,629.5C 340.135,627.327 337.969,626.993 335.5,628.5C 334.5,628 333.5,627.5 332.5,627C 334.076,626.56 335.41,625.727 336.5,624.5C 337.167,624.833 337.833,625.167 338.5,625.5C 338.489,624.559 338.989,623.892 340,623.5C 340.5,623.667 341,623.833 341.5,624C 340.289,624.893 340.289,625.726 341.5,626.5C 342.425,625.643 343.092,624.643 343.5,623.5 Z M 355.5,623.5 C 354.89,624.391 354.557,625.391 354.5,626.5C 350.188,624.147 350.522,623.147 355.5,623.5 Z M 400.5,629.5 C 398.897,629.688 397.563,629.188 396.5,628C 398.14,627.652 399.473,628.152 400.5,629.5 Z M 335.5,630.5 C 339.243,630.459 339.41,631.126 336,632.5C 335.536,631.906 335.369,631.239 335.5,630.5 Z M 405.5,635.5 C 405.511,632.999 406.178,632.832 407.5,635C 406.906,635.464 406.239,635.631 405.5,635.5 Z M 439.5,647.5 C 440.536,649.428 441.036,651.428 441,653.5C 439.374,653.146 437.541,653.146 435.5,653.5C 435.657,652.127 435.49,650.793 435,649.5C 433.052,648.891 431.218,648.224 429.5,647.5C 430.234,646.071 431.401,645.071 433,644.5C 434.15,645.424 435.15,645.424 436,644.5C 436.483,645.448 436.649,646.448 436.5,647.5C 437.5,647.5 438.5,647.5 439.5,647.5 Z M 429.5,647.5 C 427.983,647.511 426.816,648.177 426,649.5C 425.536,648.906 425.369,648.239 425.5,647.5C 426.961,646.314 428.295,646.314 429.5,647.5 Z M 443.5,650.5 C 444.117,650.611 444.617,650.944 445,651.5C 446.335,647.639 447.501,647.639 448.5,651.5C 447.667,651.833 446.833,652.167 446,652.5C 444.624,652.316 443.791,651.649 443.5,650.5 Z"/></g>
<g><path style="opacity:0.004" fill="#fefffe" d="M 466.5,607.5 C 467.833,608.167 467.833,608.167 466.5,607.5 Z"/></g>
<g><path style="opacity:0.008" fill="#fefffe" d="M 466.5,609.5 C 467.525,609.897 467.692,610.563 467,611.5C 466.536,610.906 466.369,610.239 466.5,609.5 Z"/></g>
<g><path style="opacity:0.004" fill="#fefffe" d="M 266.5,610.5 C 267.525,610.897 267.692,611.563 267,612.5C 266.536,611.906 266.369,611.239 266.5,610.5 Z"/></g>
<g><path style="opacity:0.005" fill="#fefffe" d="M 256.5,613.5 C 256.517,611.972 257.184,611.472 258.5,612C 257.956,612.717 257.289,613.217 256.5,613.5 Z"/></g>
<g><path style="opacity:0.044" fill="#fefffe" d="M 256.5,613.5 C 256.617,615.484 255.95,617.15 254.5,618.5C 252.459,619.236 250.459,620.069 248.5,621C 250.043,625.035 248.543,626.868 244,626.5C 242.033,626.458 240.199,625.958 238.5,625C 239,624.5 239.5,624 240,623.5C 241.974,623.647 243.974,623.981 246,624.5C 246.333,622.5 246.667,620.5 247,618.5C 250.564,617.487 253.731,615.82 256.5,613.5 Z"/></g>
<g><path style="opacity:0.007" fill="#fefffe" d="M 1243.5,620.5 C 1243.73,622.355 1243.06,623.188 1241.5,623C 1242.07,622.005 1242.73,621.172 1243.5,620.5 Z"/></g>
<g><path style="opacity:0.008" fill="#fefffe" d="M 368.5,622.5 C 369.289,622.783 369.956,623.283 370.5,624C 369.184,624.528 368.517,624.028 368.5,622.5 Z"/></g>
<g><path style="opacity:0.011" fill="#fefffe" d="M 1256.5,622.5 C 1256.72,623.675 1256.39,624.675 1255.5,625.5C 1254.2,623.948 1254.54,622.948 1256.5,622.5 Z"/></g>
<g><path style="opacity:0.004" fill="#fefffe" d="M 360.5,624.5 C 361.833,625.167 361.833,625.167 360.5,624.5 Z"/></g>
<g><path style="opacity:0.004" fill="#fefffe" d="M 364.5,625.5 C 364.897,624.475 365.563,624.308 366.5,625C 365.906,625.464 365.239,625.631 364.5,625.5 Z"/></g>
<g><path style="opacity:0.014" fill="#fefffe" d="M 373.5,624.5 C 374.574,626.284 376.24,627.451 378.5,628C 377.359,628.741 377.359,629.575 378.5,630.5C 375.264,631.941 372.264,631.608 369.5,629.5C 369.167,630.167 368.833,630.833 368.5,631.5C 365.763,629.898 362.763,629.064 359.5,629C 360.665,627.916 361.998,627.083 363.5,626.5C 365.5,626.833 367.5,627.167 369.5,627.5C 371.16,626.828 372.493,625.828 373.5,624.5 Z"/></g>
<g><path style="opacity:0.004" fill="#fefffe" d="M 375.5,624.5 C 376.833,625.167 376.833,625.167 375.5,624.5 Z"/></g>
<g><path style="opacity:0.004" fill="#fefffe" d="M 1193.5,624.5 C 1194.24,624.369 1194.91,624.536 1195.5,625C 1194.56,625.692 1193.9,625.525 1193.5,624.5 Z"/></g>
<g><path style="opacity:0.014" fill="#fefffe" d="M 388.5,626.5 C 389.574,627.885 390.907,629.051 392.5,630C 389.642,629.58 386.808,630.08 384,631.5C 384,628.7 385.5,627.033 388.5,626.5 Z"/></g>
<g><path style="opacity:0.004" fill="#fefffe" d="M 1188.5,626.5 C 1189.83,627.167 1189.83,627.167 1188.5,626.5 Z"/></g>
<g><path style="opacity:0.004" fill="#fefffe" d="M 379.5,627.5 C 380.573,628.251 380.74,629.251 380,630.5C 379.517,629.552 379.351,628.552 379.5,627.5 Z"/></g>
<g><path style="opacity:0.004" fill="#fefffe" d="M 1086.5,628.5 C 1086.83,628.5 1087.17,628.5 1087.5,628.5C 1087.17,631.167 1086.83,631.167 1086.5,628.5 Z"/></g>
<g><path style="opacity:0.004" fill="#fefffe" d="M 1203.5,629.5 C 1202.64,630.463 1201.97,630.463 1201.5,629.5C 1202.26,628.227 1202.92,628.227 1203.5,629.5 Z"/></g>
<g><path style="opacity:0.012" fill="#fefffe" d="M 310.5,633.5 C 312.833,633.835 315.333,633.835 318,633.5C 321.302,635.071 321.135,636.405 317.5,637.5C 315.929,636.691 314.262,636.357 312.5,636.5C 312.715,634.821 312.048,633.821 310.5,633.5 Z"/></g>
<g><path style="opacity:0.004" fill="#fefffe" d="M 1086.5,633.5 C 1085.4,634.598 1084.07,634.765 1082.5,634C 1083.68,632.232 1085.02,632.065 1086.5,633.5 Z"/></g>
<g><path style="opacity:0.004" fill="#fefffe" d="M 1086.5,632.5 C 1087.83,633.167 1087.83,633.167 1086.5,632.5 Z"/></g>
<g><path style="opacity:0.004" fill="#fefffe" d="M 216.5,633.5 C 217.833,634.167 217.833,634.167 216.5,633.5 Z"/></g>
<g><path style="opacity:0.009" fill="#fefffe" d="M 306.5,633.5 C 307.675,633.281 308.675,633.614 309.5,634.5C 307.948,635.798 306.948,635.465 306.5,633.5 Z"/></g>
<g><path style="opacity:0.006" fill="#fefffe" d="M 1175.5,633.5 C 1178.17,634.5 1178.17,635.5 1175.5,636.5C 1175.5,635.5 1175.5,634.5 1175.5,633.5 Z"/></g>
<g><path style="opacity:0.083" fill="#fefffe" d="M 202.5,634.5 C 204.465,634.948 204.798,635.948 203.5,637.5C 202.614,636.675 202.281,635.675 202.5,634.5 Z"/></g>
<g><path style="opacity:0.009" fill="#fefffe" d="M 1175.5,636.5 C 1174.29,637.686 1172.96,637.686 1171.5,636.5C 1171.37,635.624 1171.7,634.957 1172.5,634.5C 1173.52,635.193 1174.52,635.859 1175.5,636.5 Z"/></g>
<g><path style="opacity:0.017" fill="#fefffe" d="M 205.5,635.5 C 206.289,635.783 206.956,636.283 207.5,637C 206.184,637.528 205.517,637.028 205.5,635.5 Z"/></g>
<g><path style="opacity:0.023" fill="#fefffe" d="M 1082.5,635.5 C 1084.98,635.73 1085.48,636.397 1084,637.5C 1082.97,637.164 1082.47,636.497 1082.5,635.5 Z"/></g>
</svg>
